<?xml version="1.0" encoding="UTF-8"?>
<svg id="Layer_2" data-name="Layer 2" xmlns="http://www.w3.org/2000/svg" viewBox="0 0 1024 4292.44">
  <defs>
    <style>
      .cls-1 {
        fill: #050606;
      }

      .cls-2 {
        fill: #fff;
      }

      .cls-3 {
        fill: #4a494a;
      }

      .cls-4 {
        opacity: 0;
      }

      .cls-5 {
        fill: #18a1a7;
        opacity: .8;
      }
    </style>
  </defs>
  <g id="Capa_1" data-name="Capa 1">
    <g>
      <rect class="cls-3" y="335.32" width="1024" height="3957.11"/>
      <polygon class="cls-5" points="1024 252.48 1002.65 243.98 1002.65 230.33 998.93 230.33 998.93 215.73 996.93 215.73 996.93 205.99 978.04 205.99 978.04 215.73 976.04 215.73 976.04 230.33 972.89 230.33 972.89 255.48 962.88 255.48 962.88 211.94 939.7 211.94 939.7 182.74 926.54 182.74 926.54 175.17 918.24 175.17 918.24 165.43 896.79 165.43 896.79 251.96 876.47 251.96 876.47 223.84 872.75 223.84 872.75 208.16 835.55 208.16 835.55 223.84 832.98 223.84 832.98 261.15 824.11 261.15 824.11 237.63 806.37 237.63 806.37 204.98 803.51 204.98 803.51 197.34 777.47 197.34 777.47 204.98 775.18 204.98 775.18 246.82 766.6 246.82 766.6 229.52 764.6 229.52 764.6 223.84 746.28 223.84 746.28 229.52 743.99 229.52 743.99 261.15 735.12 261.15 735.12 239.52 719.67 239.52 719.67 216.81 691.06 204.98 691.06 262.37 678.47 262.37 678.47 246.82 659.87 246.82 659.87 223.84 655.87 223.84 655.87 216.81 633.83 216.81 633.83 223.84 631.83 223.84 631.83 263.32 620.67 263.32 620.67 254.67 614.3 254.67 614.3 200.46 610.9 200.46 610.9 193.01 607.86 193.01 607.86 186.53 599.56 186.53 599.56 117.3 598.13 117.3 598.13 186.53 589.83 186.53 589.83 193.01 586.79 193.01 586.79 200.46 583.39 200.46 583.39 254.67 576.9 254.67 576.9 332.84 1024 332.84 1024 252.48"/>
      <polygon class="cls-5" points="576.9 249.98 549.35 241.47 549.35 227.82 544.55 227.82 544.55 213.22 541.97 213.22 541.97 203.49 517.6 203.49 517.6 213.22 515.02 213.22 515.02 227.82 510.95 227.82 510.95 252.97 498.03 252.97 498.03 209.44 468.13 209.44 468.13 180.23 451.15 180.23 451.15 172.66 440.44 172.66 440.44 162.93 412.75 162.93 412.75 249.45 386.54 249.45 386.54 221.33 381.74 221.33 381.74 205.65 333.74 205.65 333.74 221.33 330.42 221.33 330.42 258.65 318.98 258.65 318.98 235.12 296.09 235.12 296.09 202.47 292.4 202.47 292.4 194.83 258.8 194.83 258.8 202.47 255.85 202.47 255.85 244.32 244.77 244.32 244.77 227.01 242.19 227.01 242.19 221.33 218.56 221.33 218.56 227.01 215.6 227.01 215.6 258.65 204.16 258.65 204.16 237.02 184.22 237.02 184.22 214.3 147.31 202.47 147.31 259.87 131.06 259.87 131.06 244.32 107.06 244.32 107.06 221.33 101.9 221.33 101.9 214.3 73.47 214.3 73.47 221.33 70.88 221.33 70.88 260.81 56.49 260.81 56.49 252.16 48.26 252.16 48.26 197.95 43.88 197.95 43.88 190.51 39.95 190.51 39.95 184.02 29.24 184.02 29.24 114.8 27.4 114.8 27.4 184.02 16.69 184.02 16.69 190.51 12.76 190.51 12.76 197.95 8.38 197.95 8.38 252.16 0 252.16 0 330.33 576.9 330.33 576.9 249.98"/>
      <rect class="cls-1" y="329.5" width="1024" height="12.3"/>
      <g class="cls-4">
        <rect class="cls-2" x="1020.91" width="3.09" height="19.53"/>
      </g>
    </g>
  </g>
</svg>