<?xml version="1.0" encoding="UTF-8"?>
<svg id="Layer_2" data-name="Layer 2" xmlns="http://www.w3.org/2000/svg" viewBox="0 0 1024 739.63">
  <defs>
    <style>
      .cls-1 {
        fill: #050606;
      }

      .cls-2 {
        fill: #fff;
      }

      .cls-3, .cls-4, .cls-5, .cls-6 {
        fill: #ffcb00;
      }

      .cls-7 {
        fill: #ee7160;
      }

      .cls-8 {
        fill: #86cdde;
      }

      .cls-9 {
        fill: #c2d9e1;
      }

      .cls-10 {
        fill: #e0e0e0;
      }

      .cls-11, .cls-12 {
        fill: #c8a200;
      }

      .cls-13 {
        fill: #1e1e28;
      }

      .cls-14 {
        fill: #455a64;
      }

      .cls-15 {
        fill: #4a494a;
      }

      .cls-16 {
        fill: #263239;
      }

      .cls-17 {
        fill: #273538;
      }

      .cls-18 {
        stroke-width: 3.36px;
      }

      .cls-18, .cls-19, .cls-20, .cls-21 {
        stroke: #aecad3;
      }

      .cls-18, .cls-19, .cls-20, .cls-21, .cls-22 {
        fill: none;
        stroke-miterlimit: 10;
      }

      .cls-19 {
        stroke-width: 3.4px;
      }

      .cls-20 {
        stroke-width: 3.32px;
      }

      .cls-21 {
        stroke-width: 3.46px;
      }

      .cls-23 {
        opacity: .3;
      }

      .cls-24, .cls-4 {
        opacity: .5;
      }

      .cls-25, .cls-12 {
        opacity: .9;
      }

      .cls-22 {
        stroke: #1b2137;
        stroke-linecap: round;
        stroke-width: 5px;
      }

      .cls-26 {
        fill: #18a1a7;
      }

      .cls-26, .cls-5 {
        opacity: .8;
      }

      .cls-6 {
        opacity: .7;
      }
    </style>
  </defs>
  <g id="Capa_1" data-name="Capa 1">
    <g>
      <rect class="cls-15" y="335.32" width="1024" height="404.31"/>
      <polygon class="cls-26" points="1024 252.48 1002.65 243.98 1002.65 230.33 998.93 230.33 998.93 215.73 996.93 215.73 996.93 205.99 978.04 205.99 978.04 215.73 976.04 215.73 976.04 230.33 972.89 230.33 972.89 255.48 962.88 255.48 962.88 211.94 939.7 211.94 939.7 182.74 926.54 182.74 926.54 175.17 918.24 175.17 918.24 165.43 896.79 165.43 896.79 251.96 876.47 251.96 876.47 223.84 872.75 223.84 872.75 208.16 835.55 208.16 835.55 223.84 832.98 223.84 832.98 261.15 824.11 261.15 824.11 237.63 806.37 237.63 806.37 204.98 803.51 204.98 803.51 197.34 777.47 197.34 777.47 204.98 775.18 204.98 775.18 246.82 766.6 246.82 766.6 229.52 764.6 229.52 764.6 223.84 746.28 223.84 746.28 229.52 743.99 229.52 743.99 261.15 735.12 261.15 735.12 239.52 719.67 239.52 719.67 216.81 691.06 204.98 691.06 262.37 678.47 262.37 678.47 246.82 659.87 246.82 659.87 223.84 655.87 223.84 655.87 216.81 633.83 216.81 633.83 223.84 631.83 223.84 631.83 263.32 620.67 263.32 620.67 254.67 614.3 254.67 614.3 200.46 610.9 200.46 610.9 193.01 607.86 193.01 607.86 186.53 599.56 186.53 599.56 117.3 598.13 117.3 598.13 186.53 589.83 186.53 589.83 193.01 586.79 193.01 586.79 200.46 583.39 200.46 583.39 254.67 576.9 254.67 576.9 332.84 1024 332.84 1024 252.48"/>
      <polygon class="cls-26" points="576.9 249.98 549.35 241.47 549.35 227.82 544.55 227.82 544.55 213.22 541.97 213.22 541.97 203.49 517.6 203.49 517.6 213.22 515.02 213.22 515.02 227.82 510.95 227.82 510.95 252.97 498.03 252.97 498.03 209.44 468.13 209.44 468.13 180.23 451.15 180.23 451.15 172.66 440.44 172.66 440.44 162.93 412.75 162.93 412.75 249.45 386.54 249.45 386.54 221.33 381.74 221.33 381.74 205.65 333.74 205.65 333.74 221.33 330.42 221.33 330.42 258.65 318.98 258.65 318.98 235.12 296.09 235.12 296.09 202.47 292.4 202.47 292.4 194.83 258.8 194.83 258.8 202.47 255.85 202.47 255.85 244.32 244.77 244.32 244.77 227.01 242.19 227.01 242.19 221.33 218.56 221.33 218.56 227.01 215.6 227.01 215.6 258.65 204.16 258.65 204.16 237.02 184.22 237.02 184.22 214.3 147.31 202.47 147.31 259.87 131.06 259.87 131.06 244.32 107.06 244.32 107.06 221.33 101.9 221.33 101.9 214.3 73.47 214.3 73.47 221.33 70.88 221.33 70.88 260.81 56.49 260.81 56.49 252.16 48.26 252.16 48.26 197.95 43.88 197.95 43.88 190.51 39.95 190.51 39.95 184.02 29.24 184.02 29.24 114.8 27.4 114.8 27.4 184.02 16.69 184.02 16.69 190.51 12.76 190.51 12.76 197.95 8.38 197.95 8.38 252.16 0 252.16 0 330.33 576.9 330.33 576.9 249.98"/>
      <g>
        <path class="cls-1" d="M806.38,296.22h4.93c2.41,0,4.37,1.96,4.37,4.37v28.89c0,2.41-1.96,4.37-4.37,4.37h-4.93c-2.41,0-4.37-1.96-4.37-4.37v-28.89c0-2.41,1.96-4.37,4.37-4.37Z"/>
        <path class="cls-1" d="M945.78,296.22h4.93c2.41,0,4.37,1.96,4.37,4.37v28.89c0,2.41-1.96,4.37-4.37,4.37h-4.93c-2.41,0-4.37-1.96-4.37-4.37v-28.89c0-2.41,1.96-4.37,4.37-4.37Z"/>
        <path class="cls-3" d="M957.43,285.29s-1.16-12.18-5.1-18.93c-3.28-5.63-9.47-17.24-9.47-17.24h-125.73s-6.19,11.61-9.47,17.24c-3.93,6.76-5.1,18.93-5.1,18.93-.49,7.53-.97,13.84,0,21.61,.97,7.77,6.55,8.25,6.55,8.25h141.75s5.58-.49,6.56-8.25c.97-7.77,.48-14.08,0-21.61Z"/>
        <polygon class="cls-11" points="839.45 272.46 840.12 271.82 833.93 249.12 830.38 249.12 839.45 272.46"/>
        <polygon class="cls-11" points="930.03 249.12 926.48 249.12 920.29 271.82 920.96 272.46 930.03 249.12"/>
        <path class="cls-4" d="M818.66,287.24c-7.49-2.68-12.57-3.33-15.95-3.19-.1,.79-.14,1.25-.14,1.25-.49,7.53-.97,13.84,0,21.61,.97,7.77,6.55,8.25,6.55,8.25h141.75s5.58-.49,6.56-8.25c.97-7.77,.48-14.08,0-21.61,0,0-.04-.45-.14-1.21-2.95,.59-6.67,1.69-11.51,3.16-18.45,5.58-109.53,6.28-127.12,0Z"/>
        <path class="cls-12" d="M950.88,315.16s5.58-.49,6.56-8.25c.5-4,.61-7.61,.54-11.2-4.63,.62-9.44,2.16-12.92,3.89-9.71,4.83-116.52,3.67-128.61-1.19-6.68-2.68-11.47-2.04-14.43-.92,0,3.01,.14,6.08,.56,9.42,.97,7.77,6.55,8.25,6.55,8.25h141.75Z"/>
        <path class="cls-11" d="M949.9,262.07c-2.27,3.67-4.71,6.64-7.68,7.91-4.39,1.87-21.48,1.3-21.68,1.29-34.51,.2-100.81,.17-104.67-1.3-2.46-.94-4-5.44-4.87-9.54-.27,.49-.54,.97-.8,1.44,.93,3.87,2.55,8.07,5.28,9.12,5.02,1.92,100.99,1.4,105.05,1.37,.26,0,2.75,.09,6,.09,5.51,0,13.22-.24,16.12-1.47,3.08-1.31,5.57-4.23,7.86-7.83-.2-.36-.4-.72-.61-1.09Z"/>
        <path class="cls-6" d="M928.04,215.46c-.57-1.64-2.41-2.99-4.09-2.99h-87.41c-1.68,0-3.53,1.34-4.09,2.99l-15.85,34.68c-.59,1.64,.54,1.32,2.28,1.32h122.25c1.74,0,3.59,1.67,3,.02l-16.09-36.03Z"/>
        <path class="cls-17" d="M925.34,219.29c-.59-1.53-2.5-2.78-4.25-2.78h-82.17c-1.75,0-3.66,1.25-4.25,2.78l-12.66,27.05c-.59,1.53,.35,2.78,2.1,2.78h111.81c1.74,0,2.69-1.25,2.09-2.78l-12.66-27.05Z"/>
        <path class="cls-13" d="M941.34,292.57v2.67s-4.21,9.78-5.39,11.99c-2.62,4.91-9.42,4.91-9.42,4.91,0,0-32.18,0-53.53-.02-21.34,.02-39.53,.02-39.53,.02,0,0-6.8,0-9.42-4.91-1.18-2.2-5.39-11.99-5.39-11.99v-2.67s71.14,4.85,122.68,0Z"/>
        <path class="cls-3" d="M940.37,292.66v.02s-4.13,9.57-5.28,11.73c-2.56,4.81-9.22,4.81-9.22,4.81,0,0-31.51,0-52.4-.02-20.9,.02-38.7,.02-38.7,.02,0,0-6.66,0-9.22-4.81-1.15-2.16-5.28-11.73-5.28-11.73h0c-1.05-.07-1.61-.11-1.61-.11v2.67s4.22,9.78,5.39,11.99c2.62,4.91,9.42,4.91,9.42,4.91,0,0,18.19,0,39.53-.02,21.35,.02,53.53,.02,53.53,.02,0,0,6.8,0,9.42-4.91,1.18-2.2,5.39-11.99,5.39-11.99v-2.67c-.32,.03-.65,.06-.97,.09Z"/>
        <path class="cls-2" d="M947.02,264.11s2.72,.92,3.17,3.66c.46,2.75,.26,10.31-1.59,10.77-1.85,.46-20.87,3.67-22.01,2.98-1.15-.69-.78-3.9,1.14-5.27,4.78-3.39,14.5-11.18,19.28-12.14Z"/>
        <path class="cls-2" d="M812.98,264.11s-2.72,.92-3.17,3.66c-.46,2.75-.26,10.31,1.59,10.77,1.85,.46,20.87,3.67,22.01,2.98,1.15-.69,.78-3.9-1.14-5.27-4.78-3.39-14.5-11.18-19.28-12.14Z"/>
        <path class="cls-9" d="M917.43,283.44c-.69,1.55-2.66,2.83-4.36,2.83h-66.15c-1.7,0-3.66-1.27-4.36-2.83l-4.52-10.12c-.69-1.56,.13-2.83,1.84-2.83h80.23c1.7,0,2.53,1.27,1.84,2.83l-4.52,10.12Z"/>
        <path class="cls-1" d="M915.38,283.32c-.65,1.38-2.51,2.51-4.12,2.51h-62.51c-1.61,0-3.46-1.13-4.12-2.51l-4.27-8.99c-.66-1.38,.12-2.51,1.74-2.51h75.82c1.61,0,2.39,1.13,1.73,2.51l-4.27,8.99Z"/>
        <line class="cls-21" x1="839.45" y1="274.33" x2="920.55" y2="274.33"/>
        <line class="cls-21" x1="839.45" y1="276.44" x2="920.55" y2="276.44"/>
        <line class="cls-19" x1="840.78" y1="278.54" x2="919.22" y2="278.54"/>
        <line class="cls-18" x1="841.63" y1="281" x2="918.37" y2="281"/>
        <line class="cls-20" x1="842.61" y1="283.47" x2="917.4" y2="283.47"/>
        <path class="cls-8" d="M918.69,225.1s-45.71-3.26-77.35,0c0,0-2.4,.15-4.96,7.73l-2.64,7.83h91.46s-2.22-14.06-6.51-15.57Z"/>
        <path class="cls-17" d="M840.78,244.27s1.33-12.62,5.71-13.84c4.37-1.21,13.7-1.07,16.02,.61,3.4,2.46,3.4,13.23,3.4,13.23h-25.12Z"/>
        <path class="cls-17" d="M893.24,244.27s1.34-12.62,5.7-13.84c4.37-1.21,13.7-1.07,16.02,.61,3.4,2.46,3.4,13.23,3.4,13.23h-25.13Z"/>
        <path class="cls-5" d="M942,252.21s5.73-3.02,6.87-3.08c0,0,1.32,1.54,2.41,1.76,1.09,.22,8.01-.24,9.28-1.76,0,0,1.46-5.52,0-6.25-1.46-.73-11.88-2.55-13.86-.91,0,0-.27,1.11,.75,4.79,0,0-5.3,.91-7.65,.85l2.19,4.6Z"/>
        <path class="cls-5" d="M818.47,252.21s-5.73-3.02-6.87-3.08c0,0-1.32,1.54-2.41,1.76-1.09,.22-8.01-.24-9.28-1.76,0,0-1.46-5.52,0-6.25,1.46-.73,11.88-2.55,13.86-.91,0,0,.27,1.11-.75,4.79,0,0,5.3,.91,7.65,.85l-2.19,4.6Z"/>
      </g>
      <rect class="cls-1" y="329.5" width="1024" height="12.3"/>
      <g class="cls-25">
        <path class="cls-22" d="M913.12,158.93c-9.37-5.98-20.16-9.22-31.54-8.77-11.38,.44-21.89,4.5-30.76,11.2"/>
        <path class="cls-22" d="M907.08,171.98c-7.4-4.73-15.93-7.28-24.92-6.93-8.99,.35-17.29,3.56-24.31,8.85"/>
        <path class="cls-22" d="M899.73,183.81c-5.06-3.23-10.88-4.98-17.03-4.74-6.14,.24-11.82,2.43-16.61,6.04"/>
      </g>
      <g>
        <rect class="cls-16" x="547.23" y="19.15" width="476.77" height="34.82"/>
        <rect class="cls-14" x="534.19" width="489.81" height="19.53"/>
        <g>
          <rect class="cls-10" x="529.11" y="86.81" width="88.61" height="227.34"/>
          <rect class="cls-14" x="529.11" y="105.7" width="88.61" height="94.78"/>
          <g class="cls-23">
            <rect x="549.75" y="86.81" width="48.97" height="227.34"/>
          </g>
          <g>
            <rect class="cls-10" x="561.61" y="26.22" width="22.86" height="287.94"/>
            <path class="cls-16" d="M584.47,314.15s-.01-.51-.02-1.48c0-.99-.01-2.42-.02-4.3,0-3.79-.02-9.34-.04-16.51-.02-14.36-.05-35.15-.09-61.01-.03-51.68-.08-123.6-.13-204.64l.29,.47c-7.3,0-15.02,0-22.85,0h0l.3-.47c-.07,126.1-.13,235.37-.16,287.94l-.13-.22c7.42,.05,13.11,.09,16.97,.12,1.92,.02,3.38,.04,4.38,.05,.99,.02,1.5,.04,1.5,.04,0,0-.48,.03-1.45,.04-.99,.01-2.44,.03-4.35,.05-3.88,.03-9.6,.07-17.05,.12h-.13s0-.22,0-.22c-.03-52.57-.09-161.83-.16-287.94v-.48s.3,0,.3,0h0c7.83,0,15.55,0,22.85,0h.3s0,.47,0,.47c-.05,81.17-.1,153.21-.13,204.98-.04,25.81-.07,46.57-.09,60.9-.02,7.12-.03,12.64-.04,16.4,0,1.85-.02,3.26-.02,4.24,0,.95-.02,1.42-.02,1.42Z"/>
          </g>
          <g>
            <path class="cls-16" d="M594.95,314.15h-40.12v-57.78c0-11.69,8.98-21.17,20.06-21.17h0c11.08,0,20.06,9.48,20.06,21.17v57.78Z"/>
            <path class="cls-7" d="M727.44,104.28l-144.84,164.8c-3.73,4.22-9.31,5.12-12.47,2.02h0c-3.17-3.09-2.73-9.03,.97-13.27l144.84-164.8c3.73-4.21,9.3-5.12,12.47-2.02h0c3.16,3.1,2.73,9.03-.97,13.27Z"/>
            <g class="cls-24">
              <path class="cls-2" d="M571.6,261.22c1.98-2.26,5.33-2.39,7.47-.3,2.14,2.09,2.27,5.62,.28,7.88-1.98,2.26-5.33,2.39-7.47,.3-2.14-2.09-2.27-5.62-.28-7.88Z"/>
            </g>
            <polygon class="cls-2" points="590.05 260.59 586.59 240.22 599.65 225.36 602.64 246.27 590.05 260.59"/>
            <polygon class="cls-2" points="618.15 228.63 614.68 208.25 627.74 193.39 630.74 214.3 618.15 228.63"/>
            <polygon class="cls-2" points="646.24 196.66 642.77 176.28 655.84 161.42 658.83 182.34 646.24 196.66"/>
            <polygon class="cls-2" points="674.34 164.69 670.87 144.32 683.93 129.46 686.92 150.37 674.34 164.69"/>
            <polygon class="cls-2" points="702.25 132.94 698.78 112.56 711.84 97.7 714.83 118.61 702.25 132.94"/>
            <path class="cls-16" d="M727.44,104.28l.21-.24c.21-.25,.4-.51,.59-.77,.74-1.04,1.32-2.17,1.71-3.34,.27-.87,.45-1.74,.52-2.61,.08-1.03,0-2.03-.23-2.96-1.16-4.63-5.91-6.46-10.62-4.07-.84,.42-1.64,.96-2.38,1.61-.72,.65-1.4,1.36-2.03,2.12l-6.36,7.23-20.28,23.07-117.37,133.61c-2.88,3.29-3.84,7.74-2.38,11.03,.37,.78,.85,1.47,1.44,2.05,.6,.56,1.29,1,2.06,1.31,3.17,1.21,7.2-.11,10.05-3.3l12.32-14.02,31.17-35.47,52.8-60.03,35.63-40.45,9.7-10.98,2.52-2.87,.86-.98s-.29,.33-.86,.98l-2.52,2.87-9.67,11.01-35.55,40.53-52.75,60.08-43.49,49.49c-2.97,3.32-7.19,4.71-10.5,3.44-.8-.32-1.53-.78-2.15-1.36-.61-.6-1.12-1.33-1.5-2.14-1.52-3.43-.52-8.08,2.48-11.51l117.44-133.54,20.28-23.07,6.36-7.23c.64-.77,1.33-1.48,2.06-2.14,4.23-3.71,9.72-3.66,12.27,.12,.51,.75,.87,1.62,1.08,2.57,.23,.94,.3,1.96,.21,3.01-.08,.87-.26,1.76-.54,2.63-.4,1.18-1,2.31-1.75,3.35-.26,.35-.54,.68-.84,1Z"/>
          </g>
          <g>
            <rect class="cls-10" x="536.52" y="19.49" width="78.03" height="24.17"/>
            <path class="cls-16" d="M614.55,43.65s-.02-.16-.03-.45c0-.31-.02-.74-.03-1.27-.02-1.14-.04-2.76-.08-4.83-.04-4.19-.1-10.21-.17-17.62l.31,.2c-20.36,.02-47.83,.04-78.02,.07-.38,.24,.51-.33,.42-.27h0v1.59s0,1.58,0,1.58c0,1.05,0,2.1,0,3.14,0,2.08,0,4.13,0,6.16,0,4.04-.01,7.96-.02,11.7l-.4-.26c22.66,.05,42.1,.09,55.94,.12,6.89,.03,12.38,.05,16.21,.07,1.86,.01,3.31,.02,4.35,.03,.47,0,.84,.01,1.13,.02,.26,0,.39,.01,.4,.02,0,0-.11,.01-.35,.02-.28,0-.64,0-1.09,.02-1.02,0-2.44,.02-4.27,.03-3.8,.02-9.26,.04-16.11,.07-13.9,.03-33.44,.07-56.2,.12h-.4s0-.26,0-.26c0-3.74-.01-7.66-.02-11.7,0-2.02,0-4.08,0-6.16,0-1.04,0-2.09,0-3.14v-1.58s0-.79,0-.79v-.77h0v-.02c-.09,.06,.8-.52,.43-.28,30.19,.03,57.66,.05,78.02,.07h.31s0,.2,0,.2c-.07,7.46-.13,13.52-.17,17.74-.03,2.05-.06,3.66-.08,4.79-.01,.52-.03,.93-.03,1.23-.01,.28-.02,.41-.03,.41Z"/>
          </g>
          <g>
            <rect class="cls-2" x="524.42" y="314.15" width="98.55" height="15.41"/>
            <rect class="cls-7" x="524.42" y="314.15" width="8.38" height="15.41"/>
            <rect class="cls-7" x="541.44" y="314.15" width="8.38" height="15.41"/>
            <rect class="cls-7" x="558.46" y="314.15" width="8.38" height="15.41"/>
            <rect class="cls-7" x="575.47" y="314.15" width="8.38" height="15.41"/>
            <rect class="cls-7" x="592.49" y="314.15" width="8.38" height="15.41"/>
            <rect class="cls-7" x="609.51" y="314.15" width="8.38" height="15.41"/>
            <path class="cls-16" d="M622.97,329.57s-.02-.36-.04-1.04c-.01-.72-.02-1.7-.04-2.97-.02-2.64-.06-6.46-.1-11.41l.18,.22c-18.05,.15-55.43,.26-98.54,.26h0c-.35,.42,.47-.58,.39-.47h0v3.94c0,1.31,0,2.61,0,3.9,0,2.58,0,5.11,0,7.58l-.39-.47c27.7,.08,52.27,.15,69.96,.2,8.83,.06,15.95,.11,20.9,.14,2.43,.03,4.33,.05,5.67,.06,.62,.01,1.11,.02,1.48,.03,.34,.01,.51,.02,.52,.03s-.15,.02-.47,.03c-.36,0-.83,.02-1.43,.03-1.32,.02-3.19,.04-5.59,.06-4.93,.03-12.02,.08-20.81,.14-17.77,.05-42.44,.12-70.25,.2h-.39s0-.47,0-.47c0-2.46,0-5,0-7.58,0-1.29,0-2.59,0-3.9v-1.97s0-.99,0-.99v-.49s0-.25,0-.25v-.23h0c-.09,.09,.74-.91,.39-.48h0c43.11,0,80.5,.1,98.54,.26h.18s0,.22,0,.22c-.04,5-.08,8.87-.1,11.53-.02,1.25-.03,2.22-.04,2.92-.01,.65-.02,.97-.04,.96Z"/>
          </g>
        </g>
      </g>
    </g>
  </g>
</svg>