<?xml version="1.0" encoding="UTF-8"?>
<svg id="uuid-1b61cec3-ad24-452f-9fbe-18d72d4fe22a" data-name="Layer 1" xmlns="http://www.w3.org/2000/svg" viewBox="0 0 256.67 112">
  <g>
    <path d="M43.22,100.28c-.08-.35-.24-.71-.24-1.06,.03-14.29,.07-28.59,.12-42.88-.13-3.19,.73-6.21,1.88-9.09,3.79-9.56,10.59-16.41,19.62-21.16,3.38-1.78,7.04-2.74,10.78-3.31,6.06-.93,12.12-.8,17.99,1.15,9.55,3.18,17.14,8.87,22.32,17.65,2.66,4.5,4.46,9.3,5.13,14.4,.75,5.72,.52,11.47-1.26,17.07-3.45,10.88-10.31,18.86-20.44,24.04-4.18,2.14-8.65,3.23-13.38,3.22-14.17-.03-28.34,.04-42.51-.03Z" fill="#0033ab"/>
    <path d="M43.2,99.91c-.07-.29-.2-.57-.19-.86,.02-11.55,.06-23.11,.09-34.66-.1-2.58,.59-5.02,1.52-7.35,3.07-7.73,8.56-13.27,15.86-17.1,2.73-1.44,5.69-2.22,8.71-2.68,4.9-.75,9.79-.65,14.54,.93,7.72,2.57,13.85,7.17,18.05,14.27,2.15,3.64,3.6,7.52,4.14,11.64,.6,4.63,.42,9.27-1.02,13.8-2.79,8.79-8.33,15.25-16.52,19.43-3.38,1.73-7,2.61-10.81,2.6-11.45-.02-22.91,.03-34.36-.03Z" fill="#000096"/>
    <path d="M43.22,100.28c.55-.04,1.11-.1,1.66-.1,12.69-.01,25.38-.12,38.08,.01,6.44,.07,12.28-1.71,17.85-4.72,5.71-3.09,10.27-7.53,13.74-12.89,5.11-7.9,6.89-16.79,5.73-26.08-.63-5.06-2.49-9.8-5.04-14.36-3.6-6.43-8.76-11.12-15.01-14.6-6.71-3.73-13.95-5.05-21.76-4.46-10.31,.77-18.53,5.32-25.47,12.53-4.25,4.42-7.1,9.77-8.7,15.72-.44,1.65-1.19,3.24-1.2,5-.38-4.7,.44-9.3,1.96-13.66,5.59-16,16.59-26.47,33.29-29.77,17.72-3.5,32.65,2.12,43.96,16.32,12.1,15.2,12.3,37.26,.78,52.84-9.02,12.2-21.23,18.18-36.3,18.33-13.93,.13-27.86,.08-41.78,.09-.59,0-1.24,.23-1.78-.22Z" fill="#0473b7"/>
  </g>
  <g>
    <path d="M147.32,41.96v-5.66c1.3,0,1.94-.5,1.94-1.49,0-.91-.5-1.36-1.49-1.36s-1.5,.62-1.5,1.86v14.09h-6.42v-13.43c0-1.39,.14-2.53,.42-3.42,.28-.89,.76-1.72,1.43-2.49,.76-.85,1.71-1.53,2.84-2.02,1.14-.5,2.31-.74,3.52-.74,2.19,0,4.03,.74,5.52,2.21,1.49,1.47,2.24,3.3,2.24,5.48s-.67,3.83-2.01,5.15c-1.22,1.21-3.07,1.82-5.53,1.82l-.98-.02Z" fill="#bab9b9"/>
    <path d="M166.8,43.51v6.12c-.48,.08-.93,.13-1.33,.13-2.37,0-4.35-.78-5.93-2.34-1.58-1.56-2.37-3.51-2.37-5.86s.8-4.22,2.39-5.81c1.6-1.59,3.54-2.39,5.82-2.39,2.55,0,4.56,.75,6.03,2.24,1.47,1.49,2.2,3.53,2.2,6.11v7.73h-5.91v-7.3c0-.83-.2-1.5-.61-1.99-.41-.5-.95-.74-1.64-.74-.62,0-1.16,.23-1.61,.68-.45,.45-.68,.99-.68,1.61,0,.65,.21,1.19,.62,1.61,.41,.42,.93,.63,1.56,.63,.52,0,1-.14,1.44-.41Z" fill="#bab9b9"/>
    <path d="M185.48,42.93v5.42c-.85,.32-1.67,.47-2.45,.47-1.91,0-3.52-.72-4.84-2.16-1.32-1.44-1.98-3.21-1.98-5.29,0-2.25,.8-4.16,2.39-5.7,1.59-1.55,3.54-2.32,5.86-2.32,1.23,0,2.41,.25,3.54,.74,1.13,.5,2.01,1.16,2.65,1.99,1.07,1.38,1.61,3.38,1.61,6v5.18c0,2.81-.8,5.1-2.39,6.85-1.6,1.75-3.67,2.63-6.23,2.63-.78,0-1.76-.19-2.95-.58v-5.37c.77,.42,1.55,.63,2.34,.63,1.06,0,1.89-.35,2.46-1.05,.58-.7,.87-1.7,.87-3.01v-5.93c0-1.65-.67-2.48-2.01-2.48-.57,0-1.07,.22-1.49,.66-.43,.44-.64,.94-.64,1.51,0,.6,.2,1.1,.61,1.5,.41,.4,.91,.6,1.51,.6,.4,0,.78-.09,1.15-.28Z" fill="#bab9b9"/>
    <path d="M203.21,33.34c2.23,0,4.15,.8,5.74,2.41,1.6,1.61,2.39,3.53,2.39,5.78s-.81,4.21-2.43,5.81c-1.62,1.6-3.57,2.4-5.85,2.4s-4.24-.8-5.86-2.41c-1.62-1.61-2.43-3.54-2.43-5.81s.81-4.25,2.43-5.82c1.62-1.57,3.62-2.36,6-2.36Zm-.16,5.83c-.63,0-1.17,.23-1.61,.69-.44,.46-.66,1.02-.66,1.68s.22,1.21,.67,1.67c.45,.46,.98,.7,1.6,.7s1.17-.23,1.62-.7c.45-.46,.67-1.02,.67-1.67s-.22-1.22-.66-1.68c-.44-.46-.99-.69-1.63-.69Z" fill="#bab9b9"/>
  </g>
  <g>
    <path d="M139.86,88.25v-15.55c0-1.93,.58-3.5,1.75-4.72,1.17-1.22,2.69-1.83,4.55-1.83,2.21,0,3.91,1.02,5.1,3.05,.73-1.1,1.51-1.88,2.34-2.35,.83-.47,1.86-.7,3.08-.7,1.94,0,3.42,.61,4.46,1.83,1.03,1.22,1.55,2.98,1.55,5.28v15h-6.42v-14.03c0-.7-.06-1.16-.17-1.38-.11-.23-.33-.34-.67-.34-.63,0-.95,.54-.95,1.61v14.14h-6.42v-14.03c0-.68-.06-1.14-.17-1.37-.12-.23-.34-.35-.68-.35-.63,0-.95,.57-.95,1.72v14.03h-6.42Z" fill="#bab9b9"/>
    <path d="M173.61,72.17c2.23,0,4.15,.8,5.74,2.41,1.6,1.61,2.39,3.53,2.39,5.78s-.81,4.21-2.43,5.81c-1.62,1.6-3.57,2.4-5.85,2.4s-4.24-.8-5.86-2.41c-1.62-1.61-2.43-3.54-2.43-5.81s.81-4.25,2.43-5.82c1.62-1.57,3.62-2.36,6-2.36Zm.71-4.91h3.74l-3.74,3.67h-3.33l3.33-3.67Zm-.87,10.74c-.63,0-1.17,.23-1.61,.69-.44,.46-.66,1.02-.66,1.68s.22,1.21,.67,1.67c.45,.46,.98,.7,1.6,.7s1.17-.23,1.62-.7c.45-.46,.67-1.02,.67-1.67s-.22-1.22-.66-1.68c-.44-.46-.99-.69-1.63-.69Z" fill="#bab9b9"/>
    <path d="M196.05,72.5l-7.36,16.37-7.27-16.37h5.64l1.67,4.25,1.83-4.25h5.48Z" fill="#bab9b9"/>
    <path d="M202.59,72.5v15.75h-5.91v-15.75h5.91Zm-2.94-7.03c.8,0,1.49,.28,2.08,.85,.58,.56,.88,1.23,.88,2,0,.82-.28,1.5-.83,2.02-.55,.53-1.26,.79-2.13,.79s-1.57-.26-2.13-.79c-.55-.53-.83-1.2-.83-2.02,0-.77,.29-1.44,.88-2,.58-.56,1.28-.85,2.08-.85Z" fill="#bab9b9"/>
    <path d="M211.98,66.68v21.57h-5.91v-21.57h5.91Z" fill="#bab9b9"/>
  </g>
  <g>
    <path d="M147.32,40.1v-5.66c1.3,0,1.94-.5,1.94-1.49,0-.91-.5-1.36-1.49-1.36s-1.5,.62-1.5,1.86v14.09h-6.42v-13.43c0-1.39,.14-2.53,.42-3.42,.28-.89,.76-1.72,1.43-2.49,.76-.85,1.71-1.53,2.84-2.02,1.14-.5,2.31-.74,3.52-.74,2.19,0,4.03,.74,5.52,2.21,1.49,1.47,2.24,3.3,2.24,5.48s-.67,3.83-2.01,5.15c-1.22,1.21-3.07,1.82-5.53,1.82l-.98-.02Z" fill="#000096"/>
    <path d="M166.8,41.65v6.12c-.48,.08-.93,.13-1.33,.13-2.37,0-4.35-.78-5.93-2.34-1.58-1.56-2.37-3.51-2.37-5.86s.8-4.22,2.39-5.81c1.6-1.59,3.54-2.39,5.82-2.39,2.55,0,4.56,.75,6.03,2.24,1.47,1.49,2.2,3.53,2.2,6.11v7.73h-5.91v-7.3c0-.83-.2-1.5-.61-1.99-.41-.5-.95-.74-1.64-.74-.62,0-1.16,.23-1.61,.68-.45,.45-.68,.99-.68,1.61,0,.65,.21,1.19,.62,1.61s.93,.63,1.56,.63c.52,0,1-.14,1.44-.41Z" fill="#000096"/>
    <path d="M185.48,41.07v5.42c-.85,.32-1.67,.47-2.45,.47-1.91,0-3.52-.72-4.84-2.16-1.32-1.44-1.98-3.21-1.98-5.29,0-2.25,.8-4.16,2.39-5.7,1.59-1.55,3.54-2.32,5.86-2.32,1.23,0,2.41,.25,3.54,.74,1.13,.5,2.01,1.16,2.65,1.99,1.07,1.38,1.61,3.38,1.61,6v5.18c0,2.81-.8,5.1-2.39,6.85-1.6,1.75-3.67,2.63-6.23,2.63-.78,0-1.76-.19-2.95-.58v-5.37c.77,.42,1.55,.63,2.34,.63,1.06,0,1.89-.35,2.46-1.05,.58-.7,.87-1.7,.87-3.01v-5.93c0-1.65-.67-2.48-2.01-2.48-.57,0-1.07,.22-1.49,.66-.43,.44-.64,.94-.64,1.51,0,.6,.2,1.1,.61,1.5,.41,.4,.91,.6,1.51,.6,.4,0,.78-.09,1.15-.28Z" fill="#000096"/>
    <path d="M203.21,31.48c2.23,0,4.15,.8,5.74,2.41,1.6,1.61,2.39,3.53,2.39,5.78s-.81,4.21-2.43,5.81c-1.62,1.6-3.57,2.4-5.85,2.4s-4.24-.8-5.86-2.41c-1.62-1.61-2.43-3.54-2.43-5.81s.81-4.25,2.43-5.82c1.62-1.57,3.62-2.36,6-2.36Zm-.16,5.83c-.63,0-1.17,.23-1.61,.69-.44,.46-.66,1.02-.66,1.68s.22,1.21,.67,1.67c.45,.46,.98,.7,1.6,.7s1.17-.23,1.62-.7c.45-.46,.67-1.02,.67-1.67s-.22-1.22-.66-1.68c-.44-.46-.99-.69-1.63-.69Z" fill="#000096"/>
  </g>
  <g>
    <path d="M139.86,86.02v-15.55c0-1.93,.58-3.5,1.75-4.72,1.17-1.22,2.69-1.83,4.55-1.83,2.21,0,3.91,1.02,5.1,3.05,.73-1.1,1.51-1.88,2.34-2.35,.83-.47,1.86-.7,3.08-.7,1.94,0,3.42,.61,4.46,1.83,1.03,1.22,1.55,2.98,1.55,5.28v15h-6.42v-14.03c0-.7-.06-1.16-.17-1.38-.11-.23-.33-.34-.67-.34-.63,0-.95,.54-.95,1.61v14.14h-6.42v-14.03c0-.68-.06-1.14-.17-1.37-.12-.23-.34-.35-.68-.35-.63,0-.95,.57-.95,1.72v14.03h-6.42Z" fill="#000096"/>
    <path d="M173.61,69.94c2.23,0,4.15,.8,5.74,2.41,1.6,1.61,2.39,3.53,2.39,5.78s-.81,4.21-2.43,5.81c-1.62,1.6-3.57,2.4-5.85,2.4s-4.24-.8-5.86-2.41c-1.62-1.61-2.43-3.54-2.43-5.81s.81-4.25,2.43-5.82c1.62-1.57,3.62-2.36,6-2.36Zm.71-4.91h3.74l-3.74,3.67h-3.33l3.33-3.67Zm-.87,10.74c-.63,0-1.17,.23-1.61,.69-.44,.46-.66,1.02-.66,1.68s.22,1.21,.67,1.67c.45,.46,.98,.7,1.6,.7s1.17-.23,1.62-.7c.45-.46,.67-1.02,.67-1.67s-.22-1.22-.66-1.68c-.44-.46-.99-.69-1.63-.69Z" fill="#000096"/>
    <path d="M196.05,70.27l-7.36,16.37-7.27-16.37h5.64l1.67,4.25,1.83-4.25h5.48Z" fill="#000096"/>
    <path d="M202.59,70.27v15.75h-5.91v-15.75h5.91Zm-2.94-7.03c.8,0,1.49,.28,2.08,.85,.58,.56,.88,1.23,.88,2,0,.82-.28,1.5-.83,2.02-.55,.53-1.26,.79-2.13,.79s-1.57-.26-2.13-.79c-.55-.53-.83-1.2-.83-2.02,0-.77,.29-1.44,.88-2,.58-.56,1.28-.85,2.08-.85Z" fill="#000096"/>
    <path d="M211.98,64.45v21.57h-5.91v-21.57h5.91Z" fill="#000096"/>
  </g>
  <g>
    <path d="M61.41,59.84v5.71c-.43-.15-.76-.22-1-.22-.45,0-.84,.17-1.16,.5-.32,.33-.48,.73-.48,1.2,0,.4,.18,.91,.53,1.53l.45,.79c.82,1.43,1.23,2.81,1.23,4.14,0,1.95-.69,3.59-2.08,4.94-1.38,1.35-3.07,2.02-5.07,2.02-.96,0-1.91-.22-2.85-.66v-5.79c.57,.36,1.07,.54,1.51,.54,.52,0,.95-.15,1.3-.45,.35-.3,.52-.67,.52-1.12,0-.29-.28-.93-.84-1.92-.89-1.56-1.33-3.13-1.33-4.69,0-1.89,.67-3.51,2.02-4.88,1.34-1.36,2.95-2.05,4.82-2.05,.82,0,1.63,.14,2.42,.41Z" fill="#fff"/>
    <path d="M64.03,79.95v-14.44c0-1.79,.54-3.25,1.63-4.39,1.09-1.13,2.49-1.7,4.23-1.7,2.05,0,3.63,.94,4.74,2.83,.67-1.02,1.4-1.74,2.17-2.18,.77-.44,1.73-.65,2.86-.65,1.8,0,3.18,.57,4.14,1.7,.96,1.13,1.44,2.77,1.44,4.9v13.92h-5.96v-13.03c0-.65-.05-1.07-.15-1.28-.1-.21-.31-.32-.62-.32-.59,0-.88,.5-.88,1.5v13.13h-5.96v-13.03c0-.64-.05-1.06-.16-1.28-.11-.22-.32-.32-.63-.32-.59,0-.88,.53-.88,1.6v13.03h-5.96Z" fill="#fff"/>
    <path d="M98.24,59.84v5.71c-.43-.15-.76-.22-1-.22-.45,0-.84,.17-1.16,.5-.32,.33-.48,.73-.48,1.2,0,.4,.18,.91,.53,1.53l.45,.79c.82,1.43,1.23,2.81,1.23,4.14,0,1.95-.69,3.59-2.08,4.94-1.38,1.35-3.07,2.02-5.07,2.02-.96,0-1.91-.22-2.85-.66v-5.79c.57,.36,1.07,.54,1.51,.54,.52,0,.95-.15,1.3-.45,.35-.3,.52-.67,.52-1.12,0-.29-.28-.93-.84-1.92-.89-1.56-1.33-3.13-1.33-4.69,0-1.89,.67-3.51,2.02-4.88,1.34-1.36,2.95-2.05,4.82-2.05,.82,0,1.63,.14,2.42,.41Z" fill="#fff"/>
  </g>
</svg>