<svg id="b113ae75-2d84-4d24-905e-3afe0cefa67e" data-name="Layer 1" xmlns="http://www.w3.org/2000/svg" viewBox="0 0 256.67 112"><path d="M153.05,90a3.52,3.52,0,0,0-1.28-.27c-.74,0-1.39.82-2,2.6-.31.84-.29,1,0,1.47.8,1.13,3.13.14,4.09-1.71A1.48,1.48,0,0,0,153.05,90Zm-7.22-.7c-.5-1.42-3,2-3,4.16,0,1.09.51,1.11,1.27,0s1.45-2.33,1.28-2.5,0-.41.19-.77A1.76,1.76,0,0,0,145.83,89.28Zm-3.78,13.43c.27,0,1.4-2.46,2.17-4.69s.6-2.51-.34-.85C142.63,99.31,141.52,102.71,142.05,102.71Zm11.7-8.55c-2,2-4.84,2.07-5.51.13-.41-1.23-1.54-.73-1.86.79-.48,2.45-3.65,9.36-4.52,9.89-1.18.72-1.54-1.71-.65-4.45a20.78,20.78,0,0,1,1.32-3.06l.82-1.49h-.57c-1,0-1.18-.55-1.06-2.48a7.67,7.67,0,0,1,2-4.95c.82-.85,1.11-1,2-1s1,.1,1.26.65a7.3,7.3,0,0,1,.12,2.52,7.34,7.34,0,0,0,0,1.88,1.93,1.93,0,0,0,1.45-1,15.72,15.72,0,0,1,2.26-3.54c.6-.6,1.18-.7,1.37-.17a2.15,2.15,0,0,0,1.11.65,3,3,0,0,1,2.11,2.31A6.19,6.19,0,0,1,153.75,94.16ZM142.27,84.9c-.55.6-.8.6-1.49-.05s-.7-.91-.27-1.34a1.18,1.18,0,0,1,1.78.31C142.68,84.4,142.68,84.47,142.27,84.9Zm-22.16,5.44c-.87-.84-2.29-.89-2.82-.07s-1.13,2.33-.89,2.33a6,6,0,0,0,1.21-.39c1.08-.43,1.92-.31,1.46.25a5.23,5.23,0,0,1-1.49.84c-1.25.55-1.37,1-.24,1s3.39-1.86,3.39-3A2.22,2.22,0,0,0,120.11,90.34Zm-.58,4.5a3.34,3.34,0,0,1-2.48.77c-1.18,0-1.46-.1-1.83-.56l-.4-.57-2.41.74c-3.37,1.06-4.74,1.18-6.28.51-2-.87-2.36-1.37-2.36-3.68a6.36,6.36,0,0,1,.8-3.64,18,18,0,0,1,1.61-2.79,12,12,0,0,1,4.4-3.46,3.4,3.4,0,0,1,3.13.5c.86,1.18-.15,2.53-1.13,1.54-.82-.82-2.14-.67-3.47.34a12.09,12.09,0,0,0-3.53,5.13c-.82,2.38-.58,3.36,1,4.33,1.3.77,2.72.81,5.31.16s2.82-.72,2.82-1.25a13.48,13.48,0,0,1,2.33-4.42c1-1.06,1.25-1.14,1.86-.49a2.53,2.53,0,0,0,1,.63,2.62,2.62,0,0,1,2,2.24A5.84,5.84,0,0,1,119.53,94.84Zm21.34-4.48a19.46,19.46,0,0,0-1.59,3.54c-.57,1.95-1.15,2.6-1.7,1.93-.41-.46-.07-1.62,1.22-4.41.51-1.1.94-2.07.94-2.14a13.46,13.46,0,0,0-4.16.41,23.83,23.83,0,0,0-.94,5.77c.15.39-.57,1-1.2,1s-.56-.6.07-3.9a13.86,13.86,0,0,0,.36-2.77,4.68,4.68,0,0,0-1.8.54l-1.69.67.15,2.31a8.13,8.13,0,0,0,.48,2.86c.46.75.24,1.26-.51,1.26s-1.39-1.16-1.51-3.26c-.19-3.17-.41-3.36-2.29-1.85-3.61,2.89-4,3.18-4.38,3s-.48-.45.1-3c.26-1.13.55-2.62.65-3.27.17-1,.31-1.22.7-1.27a1.17,1.17,0,0,1,.89.29c.33.33.33.5-.08,1.63-.48,1.42-.84,3.08-.65,3.08a14.74,14.74,0,0,0,1.74-1.3c1.63-1.35,3-2,3.63-1.73a1.23,1.23,0,0,0,.94-.29,8.25,8.25,0,0,1,2.38-.89l1.83-.46.58-2c.33-1,.72-2.47.89-3.12s.31-1.35.36-1.52c.12-.46.94-.33,1.42.19s.41.51-.12,1.74c-.32.69-.8,2-1.08,2.86L135.94,88l2.07.14c1.68.12,2.12.1,2.29-.19a.78.78,0,0,1,1.39.19C141.91,88.56,141.79,88.92,140.87,90.36Z" fill="#00855e"/><path d="M182,68.74a2,2,0,0,0-1.82-.86,2,2,0,0,0-1.82.86,5.62,5.62,0,0,0-.55,2.85,5.77,5.77,0,0,0,.55,2.89,2.33,2.33,0,0,0,3.64,0,5.51,5.51,0,0,0,.57-2.88A5.44,5.44,0,0,0,182,68.74Zm4.15,8.54a9.67,9.67,0,0,1-12,0A7.49,7.49,0,0,1,172,71.59a7.39,7.39,0,0,1,2.18-5.65,9.72,9.72,0,0,1,12,0,7.46,7.46,0,0,1,2.17,5.65A7.49,7.49,0,0,1,186.13,77.28Zm-20.75-8.91a2.11,2.11,0,0,0-1.51-.49,2.06,2.06,0,0,0-1.84.89,5.4,5.4,0,0,0-.58,2.82,5.62,5.62,0,0,0,.56,2.86,2,2,0,0,0,1.8.9,2.19,2.19,0,0,0,1.57-.54,2.52,2.52,0,0,0,.67-1.61h5.73a5.91,5.91,0,0,1-2.28,4.5A8.69,8.69,0,0,1,164,79.35a8.54,8.54,0,0,1-6.07-2.08,7.38,7.38,0,0,1-2.23-5.68,7.37,7.37,0,0,1,2.2-5.65,8.52,8.52,0,0,1,6-2.06,9,9,0,0,1,5.61,1.63,5.52,5.52,0,0,1,2.23,4.37H166A2.24,2.24,0,0,0,165.38,68.37Zm-16.13-1A2,2,0,0,0,148,67a2.13,2.13,0,0,0-1.15.26.83.83,0,0,0-.4.75c0,.58.65,1,1.95,1.28l.78.15q3.93.9,5.12,1.92a3.75,3.75,0,0,1,1.18,3,4.18,4.18,0,0,1-1.94,3.74,10.51,10.51,0,0,1-5.71,1.26,9.46,9.46,0,0,1-5.35-1.26,4.76,4.76,0,0,1-2-3.8H146a1.79,1.79,0,0,0,.47,1.37,2,2,0,0,0,1.41.45,2.56,2.56,0,0,0,1.39-.31,1,1,0,0,0,.48-.89c0-.64-.71-1.12-2.14-1.43l-.29-.07q-4-.85-5.28-1.85a3.53,3.53,0,0,1-1.24-2.93,4,4,0,0,1,1.82-3.54,9.5,9.5,0,0,1,5.29-1.21,9.23,9.23,0,0,1,5,1.14,4.45,4.45,0,0,1,2,3.4h-5.17A1.41,1.41,0,0,0,149.25,67.39ZM133.79,68a2.5,2.5,0,0,0-1.88-.67,2.28,2.28,0,0,0-1.78.71,2.94,2.94,0,0,0-.71,2h5.11A3.08,3.08,0,0,0,133.79,68Zm-4.37,4.9a3.19,3.19,0,0,0,.73,2.13,2.48,2.48,0,0,0,1.92.75,2.82,2.82,0,0,0,1.4-.31,1.58,1.58,0,0,0,.75-.9h5.5a5.54,5.54,0,0,1-2.62,3.58,10.2,10.2,0,0,1-5.34,1.22,8.25,8.25,0,0,1-5.91-2.07,7.29,7.29,0,0,1-2.18-5.55A7.52,7.52,0,0,1,125.9,66a8.5,8.5,0,0,1,6.07-2.1,7.91,7.91,0,0,1,6,2.29,8.83,8.83,0,0,1,2.19,6.35v.35Zm-12.33,6V71.36a4.19,4.19,0,0,0-.44-2.27,1.73,1.73,0,0,0-1.51-.62,1.87,1.87,0,0,0-1.62.72,3.64,3.64,0,0,0-.54,2.19v7.45h-5.73V64.4h5.22v2.11a6.7,6.7,0,0,1,2.25-1.88,6.21,6.21,0,0,1,2.81-.62,6,6,0,0,1,2.35.44,4.49,4.49,0,0,1,1.75,1.3,4.66,4.66,0,0,1,.92,1.91,17.44,17.44,0,0,1,.27,3.67v7.5ZM99.68,72.66a1.93,1.93,0,0,0,0-.27,18.48,18.48,0,0,1-2.19.68C96,73.45,95.3,74,95.3,74.6a1.15,1.15,0,0,0,.43,1,1.86,1.86,0,0,0,1.21.35A2.82,2.82,0,0,0,99,75.23a2.88,2.88,0,0,0,.65-2.11Zm.5,6.17-.36-1.38a7.44,7.44,0,0,1-2.38,1.43,8.11,8.11,0,0,1-2.87.47,5.46,5.46,0,0,1-3.78-1.2,4.33,4.33,0,0,1-1.33-3.4,3.79,3.79,0,0,1,1.31-3.16q1.32-1,5-1.48c.31,0,.73-.09,1.25-.15,1.81-.19,2.72-.66,2.72-1.41a1,1,0,0,0-.5-.9,3.14,3.14,0,0,0-1.57-.29,2.33,2.33,0,0,0-1.37.35,1.49,1.49,0,0,0-.56,1.08h-5.6a4.17,4.17,0,0,1,2-3.67,10.78,10.78,0,0,1,5.74-1.24,15.48,15.48,0,0,1,3.29.33,7,7,0,0,1,2.34.89,4,4,0,0,1,1.43,1.56,5.88,5.88,0,0,1,.42,2.49v8a1.61,1.61,0,0,0,.15.71,1.35,1.35,0,0,0,.47.51v.41ZM82,71.06a4,4,0,0,0-2.1-.41H77.06v3.61H80A3.8,3.8,0,0,0,82,73.84a1.88,1.88,0,0,0,0-2.78Zm-.58-7a6,6,0,0,0-2.64-.36H77.06v3.37h2.59a3.28,3.28,0,0,0,1.83-.38A1.5,1.5,0,0,0,82,65.39,1.41,1.41,0,0,0,81.44,64.07Zm4,4.33a4.43,4.43,0,0,1,2.3,1.67A5.06,5.06,0,0,1,88.54,73a6.12,6.12,0,0,1-.73,3,4.89,4.89,0,0,1-2.1,2,7.39,7.39,0,0,1-2.13.67,26.08,26.08,0,0,1-4,.2H71V59.27h8a36.85,36.85,0,0,1,3.77.14,8.8,8.8,0,0,1,2,.43,4.64,4.64,0,0,1,2.28,1.74,5.12,5.12,0,0,1,.79,2.87,4.5,4.5,0,0,1-.59,2.32A4.56,4.56,0,0,1,85.49,68.4Z" fill="#222e65"/><path d="M129.7,59.27c-12.83,0-23.22-5.55-23.22-12.39,0-5.05,5.67-9.4,13.79-11.32,0,.3-.1.61-.13.92-3.63,1.32-6,3.39-6,5.71,0,4,6.89,7.21,15.39,7.21S145,46.17,145,42.19c0-2.3-2.29-4.35-5.86-5.67,0-.34-.08-.67-.14-1,8.21,1.91,13.95,6.27,13.95,11.36C152.92,53.72,142.52,59.27,129.7,59.27Z" fill="#e02b2d" fill-rule="evenodd"/><path d="M129.62,29.77a7.56,7.56,0,1,1-7.55,7.56A7.56,7.56,0,0,1,129.62,29.77Z" fill="#e02b2d" fill-rule="evenodd"/><path d="M138.24,33.28a9.53,9.53,0,0,0-8.62-5.47h0a7.47,7.47,0,0,1-.26-2,7.56,7.56,0,1,1,8.92,7.43Z" fill="#222e65" fill-rule="evenodd"/><path d="M124.79,6.21a7.56,7.56,0,1,1-7.56,7.56A7.56,7.56,0,0,1,124.79,6.21Z" fill="#00855e" fill-rule="evenodd"/></svg>