<svg xmlns="http://www.w3.org/2000/svg" viewBox="0 0 256.67 112"><path d="M147,68.17A2.63,2.63,0,0,0,146,68c-.55,0-1,.61-1.49,1.92-.24.63-.22.77,0,1.09.58.84,2.31.11,3-1.26A1.1,1.1,0,0,0,147,68.17Zm-5.34-.52c-.37-1.05-2.18,1.48-2.18,3.08,0,.8.37.82.94,0s1.07-1.73.94-1.85,0-.31.14-.57A1.23,1.23,0,0,0,141.61,67.65Zm-2.79,9.93a12.19,12.19,0,0,0,1.6-3.47c.55-1.6.45-1.85-.25-.62C139.25,75.07,138.43,77.58,138.82,77.58Zm8.65-6.32c-1.48,1.5-3.58,1.54-4.08.09-.3-.9-1.13-.53-1.37.59-.35,1.82-2.7,6.92-3.34,7.32-.87.53-1.14-1.27-.48-3.3a14.72,14.72,0,0,1,1-2.26l.6-1.1h-.43c-.71,0-.87-.41-.78-1.83a5.75,5.75,0,0,1,1.51-3.67c.61-.62.82-.73,1.46-.73s.77.07.93.48a5.3,5.3,0,0,1,.09,1.87,5.41,5.41,0,0,0,0,1.39,1.42,1.42,0,0,0,1.07-.73,12.15,12.15,0,0,1,1.67-2.62c.45-.44.87-.51,1-.12a1.67,1.67,0,0,0,.82.48,2.19,2.19,0,0,1,1.57,1.71A4.58,4.58,0,0,1,147.47,71.26ZM139,64.41c-.41.45-.59.45-1.1,0s-.52-.68-.2-1a.88.88,0,0,1,1.32.23C139.28,64,139.28,64.09,139,64.41Zm-16.39,4a1.41,1.41,0,0,0-2.08-.05c-.43.66-.84,1.73-.66,1.73a4.59,4.59,0,0,0,.89-.29c.8-.32,1.42-.23,1.08.18a4,4,0,0,1-1.1.63c-.92.4-1,.72-.18.72s2.51-1.37,2.51-2.19A1.7,1.7,0,0,0,122.59,68.43Zm-.43,3.33a2.46,2.46,0,0,1-1.83.57c-.87,0-1.09-.07-1.35-.41l-.31-.42-1.77.55c-2.5.78-3.51.87-4.65.37-1.49-.64-1.74-1-1.74-2.72a4.75,4.75,0,0,1,.58-2.69,13.85,13.85,0,0,1,1.2-2.06,8.94,8.94,0,0,1,3.25-2.57,2.53,2.53,0,0,1,2.32.38c.64.87-.11,1.86-.84,1.14s-1.58-.5-2.56.24a9,9,0,0,0-2.62,3.8c-.6,1.76-.43,2.49.75,3.2,1,.57,2,.6,3.93.12s2.08-.53,2.08-.92a10.07,10.07,0,0,1,1.73-3.28c.71-.78.92-.83,1.37-.35a2,2,0,0,0,.78.46,1.93,1.93,0,0,1,1.46,1.66A4.3,4.3,0,0,1,122.16,71.76ZM138,68.45a13.82,13.82,0,0,0-1.18,2.62c-.42,1.44-.85,1.92-1.26,1.42-.3-.34,0-1.19.91-3.26.37-.81.69-1.52.69-1.58A10.3,10.3,0,0,0,134,68a18.23,18.23,0,0,0-.69,4.27c.11.29-.43.74-.89.74s-.41-.45.05-2.89a10.5,10.5,0,0,0,.27-2,3.43,3.43,0,0,0-1.34.4l-1.24.5.11,1.71a6.06,6.06,0,0,0,.35,2.11c.34.55.18.93-.37.93s-1-.86-1.12-2.41c-.15-2.34-.31-2.49-1.69-1.37-2.67,2.14-3,2.35-3.24,2.25s-.36-.34.07-2.19c.19-.84.41-1.94.48-2.42.12-.71.23-.91.51-1a.89.89,0,0,1,.66.22c.25.25.25.37,0,1.21a5.82,5.82,0,0,0-.48,2.28,11.9,11.9,0,0,0,1.28-1c1.21-1,2.21-1.45,2.69-1.28a.85.85,0,0,0,.69-.21,6.24,6.24,0,0,1,1.76-.66l1.36-.34.42-1.44c.25-.78.54-1.83.66-2.31s.23-1,.27-1.12c.09-.34.69-.25,1,.14s.3.37-.09,1.28c-.23.52-.59,1.48-.8,2.12l-.41,1.17,1.53.11c1.25.09,1.57.07,1.69-.14a.58.58,0,0,1,1,.14C138.71,67.12,138.62,67.39,138,68.45Z" fill="#00855e"/><path d="M168.35,52.46a1.51,1.51,0,0,0-1.35-.64,1.46,1.46,0,0,0-1.34.64,4.12,4.12,0,0,0-.41,2.11,4.18,4.18,0,0,0,.41,2.13,1.45,1.45,0,0,0,1.34.65,1.49,1.49,0,0,0,1.35-.65,4.11,4.11,0,0,0,.42-2.13A4,4,0,0,0,168.35,52.46Zm3.07,6.32a7.15,7.15,0,0,1-8.84,0A5.54,5.54,0,0,1,161,54.57a5.5,5.5,0,0,1,1.61-4.18,7.18,7.18,0,0,1,8.86,0,5.49,5.49,0,0,1,1.6,4.18A5.53,5.53,0,0,1,171.42,58.78Zm-15.35-6.6a1.54,1.54,0,0,0-1.11-.36,1.51,1.51,0,0,0-1.36.66,3.93,3.93,0,0,0-.43,2.09,4.19,4.19,0,0,0,.41,2.11,1.45,1.45,0,0,0,1.33.67,1.59,1.59,0,0,0,1.16-.4,1.9,1.9,0,0,0,.5-1.19h4.24a4.36,4.36,0,0,1-1.69,3.33A6.47,6.47,0,0,1,155,60.31a6.33,6.33,0,0,1-4.48-1.54,6.15,6.15,0,0,1,0-8.38A6.25,6.25,0,0,1,155,48.86a6.59,6.59,0,0,1,4.14,1.21,4.06,4.06,0,0,1,1.65,3.23h-4.24A1.73,1.73,0,0,0,156.07,52.18Zm-11.93-.72a1.46,1.46,0,0,0-.93-.29,1.65,1.65,0,0,0-.85.19.63.63,0,0,0-.3.56c0,.43.48.74,1.45.94l.58.12a9.73,9.73,0,0,1,3.78,1.42,2.75,2.75,0,0,1,.87,2.21,3.06,3.06,0,0,1-1.43,2.76,7.71,7.71,0,0,1-4.23.94,6.92,6.92,0,0,1-4-.94,3.52,3.52,0,0,1-1.5-2.8h4.13a1.32,1.32,0,0,0,.35,1,1.46,1.46,0,0,0,1,.33,1.85,1.85,0,0,0,1-.23.73.73,0,0,0,.36-.65c0-.48-.53-.83-1.58-1.06l-.22,0a10.54,10.54,0,0,1-3.91-1.38,2.6,2.6,0,0,1-.91-2.16,3,3,0,0,1,1.34-2.62,7,7,0,0,1,3.91-.9,6.84,6.84,0,0,1,3.7.85,3.26,3.26,0,0,1,1.51,2.51h-3.82A1,1,0,0,0,144.14,51.46Zm-11.43.44a1.81,1.81,0,0,0-1.39-.5,1.7,1.7,0,0,0-1.32.53,2.16,2.16,0,0,0-.52,1.45h3.78A2.28,2.28,0,0,0,132.71,51.9Zm-3.23,3.62A2.35,2.35,0,0,0,130,57.1a1.82,1.82,0,0,0,1.42.55,2.12,2.12,0,0,0,1-.22,1.19,1.19,0,0,0,.56-.67h4.07a4.16,4.16,0,0,1-1.94,2.65,7.64,7.64,0,0,1-4,.9,6.09,6.09,0,0,1-4.36-1.53,5.38,5.38,0,0,1-1.62-4.11,5.57,5.57,0,0,1,1.65-4.25,6.28,6.28,0,0,1,4.49-1.56,5.89,5.89,0,0,1,4.47,1.7,6.57,6.57,0,0,1,1.61,4.7v.25Zm-9.13,4.4V54.39a3,3,0,0,0-.32-1.67,1.29,1.29,0,0,0-1.12-.46,1.43,1.43,0,0,0-1.2.53,2.76,2.76,0,0,0-.39,1.62v5.51h-4.24V49.25h3.86v1.56a5,5,0,0,1,1.66-1.39,4.54,4.54,0,0,1,2.08-.46,4.35,4.35,0,0,1,1.74.33,3.22,3.22,0,0,1,1.29,1,3.45,3.45,0,0,1,.69,1.41,13.13,13.13,0,0,1,.2,2.71v5.55Zm-12.87-4.56a1.06,1.06,0,0,0,0-.2,14.89,14.89,0,0,1-1.62.5c-1.06.28-1.59.66-1.59,1.13a.87.87,0,0,0,.32.71,1.37,1.37,0,0,0,.89.25,2.1,2.1,0,0,0,1.55-.49,2.17,2.17,0,0,0,.48-1.56Zm.37,4.56-.27-1A5.45,5.45,0,0,1,105.82,60a6.12,6.12,0,0,1-2.12.35,4,4,0,0,1-2.79-.89,3.2,3.2,0,0,1-1-2.51,2.78,2.78,0,0,1,1-2.34,8.15,8.15,0,0,1,3.68-1.1l.92-.11c1.34-.14,2-.49,2-1a.7.7,0,0,0-.37-.67,2.42,2.42,0,0,0-1.16-.21,1.69,1.69,0,0,0-1,.26,1.06,1.06,0,0,0-.41.8H100.4a3.08,3.08,0,0,1,1.47-2.72,8,8,0,0,1,4.25-.92,11.48,11.48,0,0,1,2.43.25,5,5,0,0,1,1.73.66,2.86,2.86,0,0,1,1.06,1.15,4.33,4.33,0,0,1,.31,1.84v6a1.11,1.11,0,0,0,.12.52,1,1,0,0,0,.34.38v.3ZM94.41,54.18a2.83,2.83,0,0,0-1.55-.31H90.75v2.67H92.9a2.8,2.8,0,0,0,1.53-.31,1.16,1.16,0,0,0,.45-1A1.12,1.12,0,0,0,94.41,54.18ZM94,49A4.39,4.39,0,0,0,92,48.74H90.75v2.49h1.92A2.38,2.38,0,0,0,94,51a1.12,1.12,0,0,0,.39-1A1.08,1.08,0,0,0,94,49Zm3,3.2a3.37,3.37,0,0,1,1.7,1.24,3.84,3.84,0,0,1,.55,2.14,4.45,4.45,0,0,1-.54,2.24,3.62,3.62,0,0,1-1.56,1.46,5.46,5.46,0,0,1-1.57.5,21.63,21.63,0,0,1-2.92.14H86.24V45.45h5.94a25.65,25.65,0,0,1,2.78.11,6.43,6.43,0,0,1,1.51.32,3.37,3.37,0,0,1,1.68,1.28,3.75,3.75,0,0,1,.59,2.13A3.3,3.3,0,0,1,98.3,51,3.26,3.26,0,0,1,97,52.2Z" fill="#222e65"/><path d="M129.68,45.45c-9.48,0-17.17-4.1-17.17-9.16,0-3.74,4.19-6.95,10.2-8.37,0,.22-.07.45-.09.68-2.69,1-4.42,2.5-4.42,4.22,0,3,5.1,5.34,11.39,5.34S141,35.77,141,32.82c0-1.7-1.7-3.21-4.34-4.19a6,6,0,0,0-.1-.74c6.07,1.41,10.32,4.64,10.32,8.4C146.86,41.35,139.17,45.45,129.68,45.45Z" fill="#e02b2d" fill-rule="evenodd"/><path d="M129.63,23.64A5.59,5.59,0,1,1,124,29.23,5.58,5.58,0,0,1,129.63,23.64Z" fill="#e02b2d" fill-rule="evenodd"/><path d="M136,26.23a7,7,0,0,0-6.37-4h0a5.82,5.82,0,0,1-.19-1.45,5.59,5.59,0,1,1,6.6,5.49Z" fill="#222e65" fill-rule="evenodd"/><path d="M126.05,6.21a5.59,5.59,0,1,1-5.59,5.59A5.59,5.59,0,0,1,126.05,6.21Z" fill="#00855e" fill-rule="evenodd"/><path d="M36.51,96.44q.48,0,1.32,1.56a10.18,10.18,0,0,1,1.37,4.86,4,4,0,0,1-.6,2.24,2.55,2.55,0,0,1-3.92.37,3.84,3.84,0,0,1-1-2.79,9,9,0,0,1,.42-2.58,9.6,9.6,0,0,1,1.1-2.44C35.76,96.85,36.18,96.44,36.51,96.44Zm0-6.37A2.52,2.52,0,0,1,39,92.62a2.39,2.39,0,0,1-.69,1.72,2.52,2.52,0,0,1-1.91.81,2.37,2.37,0,0,1-1.75-.76,2.5,2.5,0,0,1-.72-1.76,2.43,2.43,0,0,1,.74-1.8A2.5,2.5,0,0,1,36.46,90.07Z"/><path d="M42.58,96.23V90.06a4.18,4.18,0,0,0-.17-1.52,1.39,1.39,0,0,0-.89-.52q-1.05-.3-1.05-1a.9.9,0,0,1,.44-.81,2.42,2.42,0,0,1,1.29-.28l1.4,0h.7c1.3,0,2.05,0,2.28,0l2.38-.2a11.44,11.44,0,0,1,1.24-.07,7.32,7.32,0,0,1,3.43.78,4.55,4.55,0,0,1,2.61,4.32,4.63,4.63,0,0,1-1.83,3.83,6.56,6.56,0,0,1-4.17,1.35c-.41,0-.92,0-1.52-.09l-.6,0c-.23,0-.34.13-.34.39v.07l.08,1.92a1.66,1.66,0,0,0,.21.84,2,2,0,0,0,.74.56c.51.28.76.57.76.89,0,.5-.37.88-1.12,1.14a9.87,9.87,0,0,1-3.19.4c-2.89,0-4.34-.5-4.34-1.49a.77.77,0,0,1,.19-.54,4.75,4.75,0,0,1,.88-.54.84.84,0,0,0,.49-.62A25.37,25.37,0,0,0,42.58,96.23Zm5.28-7.66v4c0,.3.07.49.2.55a2,2,0,0,0,.86.16,2,2,0,0,0,1.3-.43,3.21,3.21,0,0,0-.13-4.29,2.17,2.17,0,0,0-1.36-.43Q47.86,88.12,47.86,88.57Z"/><path d="M62.49,90.14q.61,0,.75.18a3.13,3.13,0,0,1,.24,1.12c0,.35.16.52.37.52s.3-.11.44-.34a2.81,2.81,0,0,1,2.45-1.46,2.37,2.37,0,0,1,1.75.69,2.62,2.62,0,0,1,.53.87,2.65,2.65,0,0,1,.22,1A2.84,2.84,0,0,1,69,93.88a2.9,2.9,0,0,1-.67,1,2.55,2.55,0,0,1-1.84.72,2,2,0,0,1-1-.22,5,5,0,0,1-1.06-.85.73.73,0,0,0-.46-.25.43.43,0,0,0-.43.37,8.08,8.08,0,0,0-.1,1.56,15.4,15.4,0,0,0,.13,2.41,1,1,0,0,0,.23.49,1.74,1.74,0,0,0,.63.27c.7.21,1,.58,1,1.1a1.17,1.17,0,0,1-.34.84,1.64,1.64,0,0,1-.9.48,18,18,0,0,1-3.3.23,10.55,10.55,0,0,1-3.16-.36,1.19,1.19,0,0,1-1-1.14,1.34,1.34,0,0,1,.71-1.09A1.76,1.76,0,0,0,58,99a1.14,1.14,0,0,0,.18-.5,27.8,27.8,0,0,0,.19-3.95,1.75,1.75,0,0,0-.12-.76.88.88,0,0,0-.47-.37c-.55-.22-.83-.53-.83-1a1.17,1.17,0,0,1,.57-1,7.23,7.23,0,0,1,1.93-.81A11.41,11.41,0,0,1,62.49,90.14Z"/><path d="M76.79,90.06a6.51,6.51,0,0,1,3.77,1.11,6.11,6.11,0,0,1,1.86,2.08A5.81,5.81,0,0,1,83.15,96a5.29,5.29,0,0,1-2.34,4.32,8.11,8.11,0,0,1-5.09,1.7,6.46,6.46,0,0,1-4.54-1.59,5.24,5.24,0,0,1-1.69-4,5.67,5.67,0,0,1,2.07-4.53A7.76,7.76,0,0,1,76.79,90.06Zm.9-5.07a5.28,5.28,0,0,1,1.89.31,1.7,1.7,0,0,1,.67.44.77.77,0,0,1,.25.56c0,.36-.35.78-1,1.28A6.25,6.25,0,0,1,75.59,89c-.81,0-1.21-.29-1.21-.87a.76.76,0,0,1,.12-.47,5.24,5.24,0,0,1,.71-.61,5.14,5.14,0,0,0,.65-.51.37.37,0,0,0,.11-.28.83.83,0,0,0-.14-.36.33.33,0,0,1,0-.17c0-.2.17-.36.52-.49A4.34,4.34,0,0,1,77.69,85Zm-1.83,7.78a1,1,0,0,0-.83.38,1.52,1.52,0,0,0-.31,1A10,10,0,0,0,75,96.08a15.44,15.44,0,0,0,.63,2.15,1.25,1.25,0,0,0,1.18,1q1,0,1-1.32a10.7,10.7,0,0,0-.27-2.24,8.84,8.84,0,0,0-.63-2A1.24,1.24,0,0,0,75.86,92.77Z"/><path d="M87.66,95.18l-1-1.24a6.72,6.72,0,0,0-1-1.09,2.17,2.17,0,0,0-.91-.4c-.62-.13-.93-.43-.93-.89s.4-.83,1.19-1.06a14.41,14.41,0,0,1,3.68-.34,13.57,13.57,0,0,1,2.68.19c.65.16,1,.47,1,.94a2.11,2.11,0,0,1-.38.88.45.45,0,0,0-.07.25,1.36,1.36,0,0,0,.37.71c.24.31.43.47.55.47s.35-.17.62-.52a1.52,1.52,0,0,0,.41-.78,1.14,1.14,0,0,0-.25-.56,1.05,1.05,0,0,1-.23-.52.8.8,0,0,1,.2-.5,1.15,1.15,0,0,1,.48-.37,5.32,5.32,0,0,1,1.78-.21,3.82,3.82,0,0,1,1.52.21,1,1,0,0,1,.58.87.6.6,0,0,1-.16.46,4.22,4.22,0,0,1-.83.47,1.67,1.67,0,0,0-.56.39c-.12.14-.55.72-1.3,1.72l-.8,1.22a.61.61,0,0,0-.15.27,1.15,1.15,0,0,0,.13.25L95,97.07a14.83,14.83,0,0,0,1.66,2.21,2.84,2.84,0,0,0,.83.51.8.8,0,0,1,.54.79c0,.54-.33.9-1,1.1a14.38,14.38,0,0,1-3.6.3,13.62,13.62,0,0,1-2.8-.19c-.7-.17-1.06-.53-1.06-1.09,0-.33.21-.58.61-.77a.52.52,0,0,0,.34-.52A2.11,2.11,0,0,0,90,98.35q-.48-.67-.75-.66c-.18,0-.46.29-.83.84a2.69,2.69,0,0,0-.55,1.26,1,1,0,0,0,.28.54.9.9,0,0,1,.25.63q0,1-2.4,1a5,5,0,0,1-1.89-.26.88.88,0,0,1-.58-.84.71.71,0,0,1,.19-.55,1.38,1.38,0,0,1,.67-.26,1.27,1.27,0,0,0,.79-.42c.17-.22.73-1.07,1.66-2.53l.84-1.4a.58.58,0,0,0,.12-.27A.74.74,0,0,0,87.66,95.18Z"/><path d="M104.94,90.88v6.81a3.4,3.4,0,0,0,.15,1.18,1.64,1.64,0,0,0,.59.7,2,2,0,0,1,.49.43.86.86,0,0,1,.12.47c0,1-1.28,1.51-3.83,1.51a12.84,12.84,0,0,1-3.27-.33,1.29,1.29,0,0,1-.66-.41,1,1,0,0,1-.26-.67.86.86,0,0,1,.13-.49,3.82,3.82,0,0,1,.66-.56,1.55,1.55,0,0,0,.52-.88,8.2,8.2,0,0,0,.15-1.82c0-.25,0-.74,0-1.44s-.07-1.12-.08-1.24a1,1,0,0,0-.66-.74,1,1,0,0,1-.72-.94c0-.49.31-.86,1-1.1a21.56,21.56,0,0,1,2.81-.85,10.56,10.56,0,0,1,2.32-.35C104.73,90.16,104.94,90.4,104.94,90.88Zm-2.32-5.13a3,3,0,0,1,1.62.38,1.17,1.17,0,0,1,.6,1,1.59,1.59,0,0,1-.9,1.42,6.74,6.74,0,0,1-3.46.84,2.44,2.44,0,0,1-1.36-.33,1.32,1.32,0,0,1-.68-1.17q0-1,1.44-1.59A7.42,7.42,0,0,1,102.62,85.75Z"/><path d="M112.67,90.16c.44,0,.66.31.66.94v.2c0,.13,0,.23,0,.31,0,.42.13.63.38.63s.34-.17.62-.5a4.49,4.49,0,0,1,1.59-1.16,4.88,4.88,0,0,1,2-.42,2.81,2.81,0,0,1,2.72,1.42c.19.36.36.53.48.53s.29-.15.61-.47a4.83,4.83,0,0,1,3.46-1.48,3.62,3.62,0,0,1,2.47.83,3.25,3.25,0,0,1,1,2.6q0,.38,0,1.26c0,.21,0,.82,0,1.84,0,.66,0,1.12,0,1.39s0,.28,0,.35a1.94,1.94,0,0,0,.47,1.31c.18.23.3.38.34.45a.66.66,0,0,1,.07.3c0,1-1.18,1.5-3.53,1.5a7.06,7.06,0,0,1-2.52-.37c-.63-.25-1-.58-1-1a.9.9,0,0,1,.06-.36l.46-.65a7.62,7.62,0,0,0,.36-3.2,7.76,7.76,0,0,0-.22-2.2,1,1,0,0,0-1-.74,1.07,1.07,0,0,0-.68.24,1.08,1.08,0,0,0-.39.61,13.92,13.92,0,0,0-.12,2.25A18.7,18.7,0,0,0,121,99a3.92,3.92,0,0,0,.59,1.17.78.78,0,0,1,.12.44c0,.93-1.21,1.4-3.64,1.4a8.71,8.71,0,0,1-3-.33.93.93,0,0,1-.61-.91.79.79,0,0,1,.08-.41,4.08,4.08,0,0,1,.52-.54,1.54,1.54,0,0,0,.34-.46,4,4,0,0,0,.11-.8c0-.86.08-1.72.08-2.6,0-1.53-.39-2.29-1.17-2.29a1,1,0,0,0-1,1,19.51,19.51,0,0,0-.14,2.65,14.6,14.6,0,0,0,.06,1.69,2.47,2.47,0,0,0,.28.83,1.76,1.76,0,0,1,.28.82c0,.51-.35.86-1.06,1a9.8,9.8,0,0,1-2.56.32,9,9,0,0,1-2.65-.29c-.56-.19-.84-.49-.84-.91a.71.71,0,0,1,.11-.39,3.8,3.8,0,0,1,.51-.52,2,2,0,0,0,.61-1.32c.09-1,.13-2,.13-3A7.57,7.57,0,0,0,108,94a1.25,1.25,0,0,0-.48-.71,2.44,2.44,0,0,1-.45-.41.69.69,0,0,1-.1-.38c0-.53.41-.94,1.23-1.25A14.79,14.79,0,0,1,112.67,90.16Z"/><path d="M136.82,90.06a5.79,5.79,0,0,1,3.46,1,3.06,3.06,0,0,1,1,1.26,5.18,5.18,0,0,1,.3,2l0,1.75a6.74,6.74,0,0,0,.26,2.36.74.74,0,0,0,.24.32,1.61,1.61,0,0,0,.5.13.43.43,0,0,1,.37.49,2,2,0,0,1-.45,1.18,3.88,3.88,0,0,1-1.17,1,3.6,3.6,0,0,1-1.84.51,2.4,2.4,0,0,1-1.94-.84c-.17-.21-.32-.31-.46-.31a1.17,1.17,0,0,0-.62.3,4.4,4.4,0,0,1-2.66.85,4.33,4.33,0,0,1-2.48-.65,3,3,0,0,1-1-1.14,3.11,3.11,0,0,1-.36-1.45,2.9,2.9,0,0,1,1-2.16,6.44,6.44,0,0,1,4.6-1.49,1.67,1.67,0,0,0,.85-.13q.18-.14.18-.63a4.61,4.61,0,0,0-.26-1.8.87.87,0,0,0-.84-.56,1,1,0,0,0-.63.21,4.54,4.54,0,0,0-.69.78A2.82,2.82,0,0,1,132,94.53a1.33,1.33,0,0,1-.93-.34,1.16,1.16,0,0,1-.37-.89,1.81,1.81,0,0,1,.45-1.13,4,4,0,0,1,1.23-1A9.32,9.32,0,0,1,136.82,90.06ZM136,96.85a1.16,1.16,0,0,0-.89.42,1.58,1.58,0,0,0-.11,1.91.83.83,0,0,0,.71.35c.63,0,.94-.53.94-1.58a1.87,1.87,0,0,0-.14-.87A.55.55,0,0,0,136,96.85Z"/><path d="M149.42,90.16c.44,0,.66.31.66.94v.2c0,.13,0,.23,0,.31,0,.42.13.63.38.63s.34-.17.62-.5a4.49,4.49,0,0,1,1.59-1.16,4.88,4.88,0,0,1,2-.42,2.81,2.81,0,0,1,2.72,1.42c.19.36.36.53.48.53s.29-.15.61-.47a4.83,4.83,0,0,1,3.46-1.48,3.62,3.62,0,0,1,2.47.83,3.25,3.25,0,0,1,1,2.6q0,.38,0,1.26c0,.21,0,.82,0,1.84,0,.66,0,1.12,0,1.39s0,.28,0,.35a1.94,1.94,0,0,0,.47,1.31c.18.23.3.38.34.45a.66.66,0,0,1,.07.3c0,1-1.18,1.5-3.53,1.5a7.06,7.06,0,0,1-2.52-.37c-.63-.25-.95-.58-.95-1a.9.9,0,0,1,.06-.36l.46-.65a7.62,7.62,0,0,0,.36-3.2,7.76,7.76,0,0,0-.22-2.2,1,1,0,0,0-1-.74,1.07,1.07,0,0,0-.68.24,1.08,1.08,0,0,0-.39.61,13.92,13.92,0,0,0-.12,2.25,18.7,18.7,0,0,0,.12,2.39,3.92,3.92,0,0,0,.59,1.17.78.78,0,0,1,.12.44c0,.93-1.21,1.4-3.64,1.4a8.71,8.71,0,0,1-3-.33.93.93,0,0,1-.61-.91.79.79,0,0,1,.08-.41,4.08,4.08,0,0,1,.52-.54,1.54,1.54,0,0,0,.34-.46,4,4,0,0,0,.11-.8c.05-.86.08-1.72.08-2.6,0-1.53-.39-2.29-1.17-2.29a1,1,0,0,0-1,1,19.51,19.51,0,0,0-.14,2.65,14.6,14.6,0,0,0,.06,1.69,2.47,2.47,0,0,0,.28.83,1.76,1.76,0,0,1,.28.82c0,.51-.35.86-1.06,1A9.8,9.8,0,0,1,147,102a8.86,8.86,0,0,1-2.64-.29c-.57-.19-.85-.49-.85-.91a.71.71,0,0,1,.11-.39,3.8,3.8,0,0,1,.51-.52,2,2,0,0,0,.61-1.32c.09-1,.13-2,.13-3a7.57,7.57,0,0,0-.11-1.55,1.2,1.2,0,0,0-.48-.71,2.44,2.44,0,0,1-.45-.41.69.69,0,0,1-.1-.38c0-.53.41-.94,1.23-1.25A14.79,14.79,0,0,1,149.42,90.16Z"/><path d="M177.71,96.5H172.2c-.24,0-.37.1-.37.31a1.9,1.9,0,0,0,.83,1.44,2.75,2.75,0,0,0,1.78.67,4,4,0,0,0,1.24-.22,3.83,3.83,0,0,0,1.13-.53,1.23,1.23,0,0,1,.64-.28.77.77,0,0,1,.59.37,1.23,1.23,0,0,1,.3.78,2.14,2.14,0,0,1-1.06,1.63,7,7,0,0,1-4.3,1.39,6.11,6.11,0,0,1-4.12-1.43,5.77,5.77,0,0,1-1.34-1.7,5.94,5.94,0,0,1-.69-2.79A5.69,5.69,0,0,1,168,92.6a6.23,6.23,0,0,1,2.62-2,6.54,6.54,0,0,1,2.59-.51A5.86,5.86,0,0,1,177,91.34a5,5,0,0,1,1.26,1.5,3.91,3.91,0,0,1,.55,1.92,2.27,2.27,0,0,1-.31,1.25A1,1,0,0,1,177.71,96.5Zm-5.21-2.2h1.19q.75,0,.75-.69a1.49,1.49,0,0,0-.37-1,1.24,1.24,0,0,0-.95-.4,1.2,1.2,0,0,0-1,.52,1.65,1.65,0,0,0-.35,1,.6.6,0,0,0,.17.49A.9.9,0,0,0,172.5,94.3Z"/><path d="M193.82,94.4l.16,4.12a1.73,1.73,0,0,0,.15.69,5.39,5.39,0,0,0,.72.86.72.72,0,0,1,.18.53c0,.51-.31.87-.93,1.07a11.8,11.8,0,0,1-3.31.31,6.46,6.46,0,0,1-2.28-.28,1,1,0,0,1-.69-1,.66.66,0,0,1,.07-.35,7.11,7.11,0,0,1,.47-.54c.31-.33.47-1.42.47-3.28a5.72,5.72,0,0,0-.38-2.39,1.36,1.36,0,0,0-2.2-.12A3.92,3.92,0,0,0,186,95.9v2.32a3.44,3.44,0,0,0,.08,1,5.73,5.73,0,0,0,.58,1,.86.86,0,0,1,.13.48q0,.69-1,1a10,10,0,0,1-3,.33c-2.17,0-3.26-.45-3.26-1.35a.79.79,0,0,1,.1-.42,2.22,2.22,0,0,1,.48-.42,1,1,0,0,0,.38-.51,8.41,8.41,0,0,0,.16-1.41c0-.89.08-1.83.08-2.8a2.92,2.92,0,0,0-.12-1.06,2,2,0,0,0-.71-.62.91.91,0,0,1-.51-.77.93.93,0,0,1,.41-.77,8.16,8.16,0,0,1,1.69-.76c.75-.26,1.47-.49,2.17-.67a6.89,6.89,0,0,1,1.43-.27.78.78,0,0,1,.59.25.87.87,0,0,1,.24.61s0,.12,0,.3a.92.92,0,0,0,0,.16c0,.37.15.56.47.56s.38-.15.59-.44a3.34,3.34,0,0,1,2.93-1.46,4.12,4.12,0,0,1,2.53.78,3,3,0,0,1,1,1.29A7.59,7.59,0,0,1,193.82,94.4Z"/><path d="M202.67,93.14v4a1.81,1.81,0,0,0,.34,1.15,1.08,1.08,0,0,0,.89.45,2.68,2.68,0,0,0,1.2-.42.72.72,0,0,1,.36-.11.65.65,0,0,1,.51.34,1.26,1.26,0,0,1,.24.74,1.86,1.86,0,0,1-.8,1.39,6,6,0,0,1-4,1.42,4.21,4.21,0,0,1-3-1.06,3.64,3.64,0,0,1-1.14-2.79V92.79c0-.18,0-.29-.07-.33a.53.53,0,0,0-.33-.07h-1.21c-.22,0-.37,0-.43-.11a1,1,0,0,1-.09-.52v-.51a.56.56,0,0,1,.27-.52l5.36-3.38a1.07,1.07,0,0,1,.49-.1h.95a.48.48,0,0,1,.4.13,1.06,1.06,0,0,1,.1.54V89.5a.64.64,0,0,0,.11.46.72.72,0,0,0,.47.1h2.17c.29,0,.48,0,.56.16a1.14,1.14,0,0,1,.13.67v.69a1.33,1.33,0,0,1-.16.78.7.7,0,0,1-.6.22h-2.12a.64.64,0,0,0-.45.12A.67.67,0,0,0,202.67,93.14Z"/><path d="M217.49,96.5H212c-.24,0-.36.1-.36.31a1.87,1.87,0,0,0,.83,1.44,2.74,2.74,0,0,0,1.77.67,4,4,0,0,0,1.25-.22,4,4,0,0,0,1.13-.53,1.24,1.24,0,0,1,.63-.28.79.79,0,0,1,.6.37,1.22,1.22,0,0,1,.29.78,2.15,2.15,0,0,1-1.05,1.63,7,7,0,0,1-4.3,1.39,6.14,6.14,0,0,1-4.13-1.43,5.74,5.74,0,0,1-1.33-1.7,5.94,5.94,0,0,1-.69-2.79,5.68,5.68,0,0,1,1.19-3.54,6.26,6.26,0,0,1,2.63-2,6.51,6.51,0,0,1,2.59-.51,5.83,5.83,0,0,1,3.78,1.27,5.08,5.08,0,0,1,1.27,1.5,4,4,0,0,1,.55,1.92,2.27,2.27,0,0,1-.32,1.25A1,1,0,0,1,217.49,96.5Zm-5.2-2.2h1.18q.75,0,.75-.69a1.49,1.49,0,0,0-.36-1,1.24,1.24,0,0,0-1-.4,1.19,1.19,0,0,0-1,.52,1.59,1.59,0,0,0-.35,1,.57.57,0,0,0,.17.49A.9.9,0,0,0,212.29,94.3Z"/><path d="M222.65,85.91a2.39,2.39,0,0,1,1.77.75,3.85,3.85,0,0,1,1,2.79A8.77,8.77,0,0,1,225,92a9.53,9.53,0,0,1-1.1,2.46c-.53.81-1,1.22-1.27,1.22s-.75-.52-1.32-1.56a11.57,11.57,0,0,1-1-2.46,9.24,9.24,0,0,1-.37-2.4,4,4,0,0,1,.6-2.24A2.42,2.42,0,0,1,222.65,85.91ZM222.71,97a2.31,2.31,0,0,1,1.74.76,2.42,2.42,0,0,1,.73,1.76,2.49,2.49,0,0,1-.75,1.8,2.53,2.53,0,0,1-4.33-1.79,2.34,2.34,0,0,1,.69-1.72A2.56,2.56,0,0,1,222.71,97Z"/><path d="M35.51,95.55q.48,0,1.32,1.56A10.21,10.21,0,0,1,38.2,102a4,4,0,0,1-.6,2.24,2.55,2.55,0,0,1-3.92.37,3.84,3.84,0,0,1-1-2.79,8.93,8.93,0,0,1,.42-2.57,9.68,9.68,0,0,1,1.1-2.45C34.76,96,35.18,95.56,35.51,95.55Zm0-6.37a2.47,2.47,0,0,1,1.74.7A2.43,2.43,0,0,1,38,91.73a2.39,2.39,0,0,1-.69,1.72,2.52,2.52,0,0,1-1.91.81,2.37,2.37,0,0,1-1.75-.76,2.5,2.5,0,0,1-.72-1.76,2.45,2.45,0,0,1,.74-1.8A2.5,2.5,0,0,1,35.46,89.18Z" fill="#446367"/><path d="M41.58,95.34V89.17a4.11,4.11,0,0,0-.17-1.51c-.11-.22-.4-.39-.89-.53q-1.05-.3-1.05-1a.9.9,0,0,1,.44-.81A2.42,2.42,0,0,1,41.2,85l1.4,0h.7c1.3,0,2.05,0,2.28,0s1-.08,2.38-.21a11.44,11.44,0,0,1,1.24-.07,7.32,7.32,0,0,1,3.43.78,4.55,4.55,0,0,1,2.61,4.32,4.63,4.63,0,0,1-1.83,3.83A6.56,6.56,0,0,1,49.24,95c-.41,0-.92,0-1.52-.08l-.6,0c-.23,0-.34.13-.34.39v.07l.08,1.92a1.66,1.66,0,0,0,.21.84,2.09,2.09,0,0,0,.74.57c.51.27.76.57.76.89,0,.49-.37.87-1.12,1.13a9.87,9.87,0,0,1-3.19.4c-2.89,0-4.34-.5-4.34-1.49a.77.77,0,0,1,.19-.54,4.75,4.75,0,0,1,.88-.54.82.82,0,0,0,.49-.62A25.37,25.37,0,0,0,41.58,95.34Zm5.28-7.66v4c0,.3.07.49.2.55a2,2,0,0,0,.86.16,2,2,0,0,0,1.3-.43A2.57,2.57,0,0,0,50,89.86a2.6,2.6,0,0,0-.89-2.2,2.17,2.17,0,0,0-1.36-.43Q46.86,87.23,46.86,87.68Z" fill="#446367"/><path d="M61.49,89.25q.61,0,.75.18a3.14,3.14,0,0,1,.24,1.13c0,.34.16.51.37.51s.3-.11.44-.34a2.81,2.81,0,0,1,2.45-1.46,2.37,2.37,0,0,1,1.75.69,2.73,2.73,0,0,1,.53.87,2.65,2.65,0,0,1,.22,1A2.84,2.84,0,0,1,68,93a2.9,2.9,0,0,1-.67,1,2.55,2.55,0,0,1-1.84.72,2.15,2.15,0,0,1-1-.21,5.13,5.13,0,0,1-1.06-.86.73.73,0,0,0-.46-.25.43.43,0,0,0-.43.37,8.08,8.08,0,0,0-.1,1.56,15.3,15.3,0,0,0,.13,2.41,1,1,0,0,0,.23.49,1.74,1.74,0,0,0,.63.27c.7.21,1,.58,1,1.1a1.17,1.17,0,0,1-.34.84,1.64,1.64,0,0,1-.9.48,18,18,0,0,1-3.3.23,10.55,10.55,0,0,1-3.16-.36,1.19,1.19,0,0,1-1-1.14,1.34,1.34,0,0,1,.71-1.09,1.76,1.76,0,0,0,.46-.4,1.09,1.09,0,0,0,.18-.5,27.8,27.8,0,0,0,.19-3.95,1.78,1.78,0,0,0-.12-.76.88.88,0,0,0-.47-.37c-.55-.21-.83-.53-.83-.94a1.17,1.17,0,0,1,.57-1,7,7,0,0,1,1.93-.8A11.47,11.47,0,0,1,61.49,89.25Z" fill="#446367"/><path d="M75.79,89.17a6.45,6.45,0,0,1,3.77,1.12,6,6,0,0,1,1.86,2.07,5.81,5.81,0,0,1,.73,2.79,5.28,5.28,0,0,1-2.34,4.32,8.11,8.11,0,0,1-5.09,1.7,6.46,6.46,0,0,1-4.54-1.59,5.24,5.24,0,0,1-1.69-4A5.68,5.68,0,0,1,70.56,91,7.76,7.76,0,0,1,75.79,89.17Zm.9-5.07a5.06,5.06,0,0,1,1.89.32,1.59,1.59,0,0,1,.67.43.79.79,0,0,1,.25.56c0,.36-.35.79-1,1.28a6.25,6.25,0,0,1-3.91,1.37c-.81,0-1.21-.29-1.21-.87a.76.76,0,0,1,.12-.47,5.24,5.24,0,0,1,.71-.61,5.14,5.14,0,0,0,.65-.51.37.37,0,0,0,.11-.28.76.76,0,0,0-.14-.35.39.39,0,0,1,0-.18c0-.2.17-.36.52-.49A4.34,4.34,0,0,1,76.69,84.1Zm-1.83,7.78a1,1,0,0,0-.83.38,1.52,1.52,0,0,0-.31,1A10,10,0,0,0,74,95.19a15,15,0,0,0,.63,2.15,1.25,1.25,0,0,0,1.18,1q1,0,1-1.32a10.78,10.78,0,0,0-.27-2.24,8.84,8.84,0,0,0-.63-2A1.25,1.25,0,0,0,74.86,91.88Z" fill="#446367"/><path d="M86.66,94.29l-1-1.24a6.72,6.72,0,0,0-1-1.09,2.17,2.17,0,0,0-.91-.4c-.62-.13-.93-.43-.93-.89s.4-.83,1.19-1.06a14.41,14.41,0,0,1,3.68-.34,12.69,12.69,0,0,1,2.68.2c.65.15,1,.46,1,.93a2.06,2.06,0,0,1-.38.88.45.45,0,0,0-.07.25,1.36,1.36,0,0,0,.37.71c.24.32.43.47.55.47s.35-.17.62-.52a1.52,1.52,0,0,0,.41-.78,1.18,1.18,0,0,0-.25-.56,1.05,1.05,0,0,1-.23-.52.8.8,0,0,1,.2-.5,1.13,1.13,0,0,1,.48-.36,5.26,5.26,0,0,1,1.78-.22,3.78,3.78,0,0,1,1.52.22.93.93,0,0,1,.58.86.59.59,0,0,1-.16.46,4.22,4.22,0,0,1-.83.47,1.83,1.83,0,0,0-.56.39l-1.3,1.72-.8,1.22a.61.61,0,0,0-.15.27,1.15,1.15,0,0,0,.13.25L94,96.18a15.69,15.69,0,0,0,1.66,2.22,3.09,3.09,0,0,0,.83.5.82.82,0,0,1,.54.8c0,.53-.33.89-1,1.09a14.38,14.38,0,0,1-3.6.3,13.62,13.62,0,0,1-2.8-.19c-.7-.17-1.06-.53-1.06-1.09a.88.88,0,0,1,.61-.77.52.52,0,0,0,.34-.52A2.11,2.11,0,0,0,89,97.46q-.48-.67-.75-.66c-.18,0-.46.29-.83.85a2.62,2.62,0,0,0-.55,1.25,1,1,0,0,0,.28.54.92.92,0,0,1,.25.63q0,1-2.4,1a5,5,0,0,1-1.89-.26.88.88,0,0,1-.58-.84.71.71,0,0,1,.19-.55,1.38,1.38,0,0,1,.67-.26,1.27,1.27,0,0,0,.79-.42c.17-.22.73-1.06,1.66-2.53l.84-1.4a.58.58,0,0,0,.12-.27A.74.74,0,0,0,86.66,94.29Z" fill="#446367"/><path d="M103.94,90V96.8a3.46,3.46,0,0,0,.15,1.19,1.57,1.57,0,0,0,.59.69,2,2,0,0,1,.49.44.81.81,0,0,1,.12.46c0,1-1.28,1.51-3.83,1.51a12.84,12.84,0,0,1-3.27-.33,1.29,1.29,0,0,1-.66-.41,1,1,0,0,1-.26-.67.86.86,0,0,1,.13-.49,4.35,4.35,0,0,1,.66-.56,1.55,1.55,0,0,0,.52-.88,8.2,8.2,0,0,0,.15-1.82c0-.25,0-.74,0-1.44s-.07-1.12-.08-1.24a1,1,0,0,0-.66-.74,1,1,0,0,1-.72-.93c0-.5.31-.86,1-1.11a21.56,21.56,0,0,1,2.81-.85,10.56,10.56,0,0,1,2.32-.35C103.73,89.27,103.94,89.51,103.94,90Zm-2.32-5.13a3,3,0,0,1,1.62.38,1.18,1.18,0,0,1,.6,1,1.61,1.61,0,0,1-.9,1.43,6.84,6.84,0,0,1-3.46.83,2.44,2.44,0,0,1-1.36-.33A1.32,1.32,0,0,1,97.44,87c0-.67.48-1.2,1.44-1.58A7.44,7.44,0,0,1,101.62,84.86Z" fill="#446367"/><path d="M111.67,89.27c.44,0,.66.31.66,1v.2c0,.12,0,.22,0,.3,0,.42.13.63.38.63s.34-.17.62-.5a4.49,4.49,0,0,1,1.59-1.16,4.88,4.88,0,0,1,2-.42,2.8,2.8,0,0,1,2.72,1.43c.19.35.36.52.48.52s.29-.15.61-.47a4.83,4.83,0,0,1,3.46-1.48,3.62,3.62,0,0,1,2.47.83,3.25,3.25,0,0,1,1,2.6c0,.25,0,.67,0,1.27,0,.2,0,.81,0,1.84,0,.65,0,1.11,0,1.38s0,.28,0,.35a1.94,1.94,0,0,0,.47,1.31c.18.23.3.38.34.45a.66.66,0,0,1,.07.3c0,1-1.18,1.5-3.53,1.5a7.06,7.06,0,0,1-2.52-.37c-.63-.25-1-.58-1-1a.82.82,0,0,1,.06-.35c0-.09.2-.3.46-.65a7.65,7.65,0,0,0,.36-3.2,7.79,7.79,0,0,0-.22-2.21,1,1,0,0,0-1-.74,1.07,1.07,0,0,0-.68.24,1.15,1.15,0,0,0-.39.61,13.92,13.92,0,0,0-.12,2.25,18.7,18.7,0,0,0,.12,2.39,3.92,3.92,0,0,0,.59,1.17.79.79,0,0,1,.12.45c0,.93-1.21,1.39-3.64,1.39a8.71,8.71,0,0,1-3-.33.92.92,0,0,1-.61-.91.79.79,0,0,1,.08-.41,4.08,4.08,0,0,1,.52-.54,1.42,1.42,0,0,0,.34-.46,3.94,3.94,0,0,0,.11-.79c0-.86.08-1.73.08-2.61,0-1.53-.39-2.29-1.17-2.29a1,1,0,0,0-1,1,19.51,19.51,0,0,0-.14,2.65,14.6,14.6,0,0,0,.06,1.69,2.47,2.47,0,0,0,.28.83,1.8,1.8,0,0,1,.28.82c0,.51-.35.86-1.06,1a9.4,9.4,0,0,1-2.56.32,8.66,8.66,0,0,1-2.65-.29q-.84-.28-.84-.9a.72.72,0,0,1,.11-.4,4.49,4.49,0,0,1,.51-.52,2,2,0,0,0,.61-1.32c.09-1,.13-2,.13-3a7.69,7.69,0,0,0-.11-1.56,1.25,1.25,0,0,0-.48-.71,2.44,2.44,0,0,1-.45-.41.69.69,0,0,1-.1-.38c0-.53.41-.94,1.23-1.25A14.79,14.79,0,0,1,111.67,89.27Z" fill="#446367"/><path d="M135.82,89.17a5.79,5.79,0,0,1,3.46,1,3.06,3.06,0,0,1,1,1.26,5.2,5.2,0,0,1,.3,2l0,1.74a6.74,6.74,0,0,0,.26,2.36.74.74,0,0,0,.24.32,1.61,1.61,0,0,0,.5.13c.25,0,.37.21.37.5a2,2,0,0,1-.45,1.17,3.88,3.88,0,0,1-1.17,1,3.6,3.6,0,0,1-1.84.51,2.4,2.4,0,0,1-1.94-.84c-.17-.2-.32-.31-.46-.31a1.17,1.17,0,0,0-.62.3,4.4,4.4,0,0,1-2.66.85,4.33,4.33,0,0,1-2.48-.65,3.09,3.09,0,0,1-1-1.13,3.18,3.18,0,0,1-.36-1.46,2.92,2.92,0,0,1,1-2.16,6.48,6.48,0,0,1,4.6-1.49,1.67,1.67,0,0,0,.85-.13q.18-.14.18-.63a4.61,4.61,0,0,0-.26-1.8.86.86,0,0,0-.84-.55,1,1,0,0,0-.63.21,4,4,0,0,0-.69.77A2.82,2.82,0,0,1,131,93.64a1.33,1.33,0,0,1-.93-.34,1.16,1.16,0,0,1-.37-.89,1.81,1.81,0,0,1,.45-1.13,4,4,0,0,1,1.23-1A9.32,9.32,0,0,1,135.82,89.17ZM135,96a1.16,1.16,0,0,0-.89.42,1.43,1.43,0,0,0-.38,1,1.45,1.45,0,0,0,.27.91.85.85,0,0,0,.71.34c.63,0,.94-.53.94-1.58a1.87,1.87,0,0,0-.14-.87A.57.57,0,0,0,135,96Z" fill="#446367"/><path d="M148.42,89.27c.44,0,.66.31.66,1v.2c0,.12,0,.22,0,.3,0,.42.13.63.38.63s.34-.17.62-.5a4.49,4.49,0,0,1,1.59-1.16,4.88,4.88,0,0,1,2-.42,2.8,2.8,0,0,1,2.72,1.43c.19.35.36.52.48.52s.29-.15.61-.47a4.83,4.83,0,0,1,3.46-1.48,3.62,3.62,0,0,1,2.47.83,3.25,3.25,0,0,1,1,2.6c0,.25,0,.67,0,1.27,0,.2,0,.81,0,1.84,0,.65,0,1.11,0,1.38s0,.28,0,.35a1.94,1.94,0,0,0,.47,1.31c.18.23.3.38.34.45a.66.66,0,0,1,.07.3c0,1-1.18,1.5-3.53,1.5a7.06,7.06,0,0,1-2.52-.37c-.63-.25-.95-.58-.95-1a.82.82,0,0,1,.06-.35c.05-.09.2-.3.46-.65a7.65,7.65,0,0,0,.36-3.2,7.79,7.79,0,0,0-.22-2.21,1,1,0,0,0-1-.74,1.07,1.07,0,0,0-.68.24,1.15,1.15,0,0,0-.39.61,13.92,13.92,0,0,0-.12,2.25,18.7,18.7,0,0,0,.12,2.39,3.92,3.92,0,0,0,.59,1.17.79.79,0,0,1,.12.45c0,.93-1.21,1.39-3.64,1.39a8.71,8.71,0,0,1-3-.33.92.92,0,0,1-.61-.91.79.79,0,0,1,.08-.41,4.08,4.08,0,0,1,.52-.54,1.42,1.42,0,0,0,.34-.46,3.94,3.94,0,0,0,.11-.79c.05-.86.08-1.73.08-2.61,0-1.53-.39-2.29-1.17-2.29a1,1,0,0,0-1,1,19.51,19.51,0,0,0-.14,2.65,14.6,14.6,0,0,0,.06,1.69,2.47,2.47,0,0,0,.28.83,1.8,1.8,0,0,1,.28.82c0,.51-.35.86-1.06,1a9.4,9.4,0,0,1-2.56.32,8.54,8.54,0,0,1-2.64-.29c-.57-.19-.85-.49-.85-.9a.72.72,0,0,1,.11-.4,4.49,4.49,0,0,1,.51-.52,2,2,0,0,0,.61-1.32c.09-1,.13-2,.13-3a7.69,7.69,0,0,0-.11-1.56,1.2,1.2,0,0,0-.48-.71,2.44,2.44,0,0,1-.45-.41.69.69,0,0,1-.1-.38c0-.53.41-.94,1.23-1.25A14.79,14.79,0,0,1,148.42,89.27Z" fill="#446367"/><path d="M176.71,95.61H171.2c-.24,0-.37.1-.37.31a1.9,1.9,0,0,0,.83,1.44,2.75,2.75,0,0,0,1.78.67,4.24,4.24,0,0,0,1.24-.21,4.1,4.1,0,0,0,1.13-.54,1.23,1.23,0,0,1,.64-.28.79.79,0,0,1,.59.38,1.21,1.21,0,0,1,.3.77,2.14,2.14,0,0,1-1.06,1.63,7,7,0,0,1-4.3,1.39,6.06,6.06,0,0,1-4.12-1.43,5.77,5.77,0,0,1-1.34-1.7,5.94,5.94,0,0,1-.69-2.79,5.65,5.65,0,0,1,1.2-3.53,6.17,6.17,0,0,1,2.62-2,6.54,6.54,0,0,1,2.59-.51A5.86,5.86,0,0,1,176,90.45a5,5,0,0,1,1.26,1.5,3.91,3.91,0,0,1,.55,1.92,2.25,2.25,0,0,1-.31,1.25A1,1,0,0,1,176.71,95.61Zm-5.21-2.19h1.19c.5,0,.75-.24.75-.7a1.49,1.49,0,0,0-.37-1,1.24,1.24,0,0,0-.95-.4,1.23,1.23,0,0,0-1,.52,1.65,1.65,0,0,0-.35,1,.6.6,0,0,0,.17.49A.89.89,0,0,0,171.5,93.42Z" fill="#446367"/><path d="M192.82,93.51l.16,4.12a1.78,1.78,0,0,0,.15.7,6,6,0,0,0,.72.85.74.74,0,0,1,.18.53q0,.77-.93,1.08a12.31,12.31,0,0,1-3.31.3,6.46,6.46,0,0,1-2.28-.28,1,1,0,0,1-.69-1,.66.66,0,0,1,.07-.35,7.11,7.11,0,0,1,.47-.54c.31-.33.47-1.42.47-3.28a5.72,5.72,0,0,0-.38-2.39,1.36,1.36,0,0,0-2.2-.12A4,4,0,0,0,185,95v2.32a3.44,3.44,0,0,0,.08,1,5.73,5.73,0,0,0,.58,1,.91.91,0,0,1,.13.48q0,.7-1,1a10,10,0,0,1-3,.33c-2.17,0-3.26-.45-3.26-1.35a.79.79,0,0,1,.1-.42,2.22,2.22,0,0,1,.48-.42,1,1,0,0,0,.38-.51,8.41,8.41,0,0,0,.16-1.41c0-.89.08-1.82.08-2.8a3,3,0,0,0-.12-1.06,2,2,0,0,0-.71-.62.91.91,0,0,1-.51-.77.93.93,0,0,1,.41-.77,7.76,7.76,0,0,1,1.69-.75c.75-.27,1.47-.49,2.17-.68a6.89,6.89,0,0,1,1.43-.27.78.78,0,0,1,.59.25.89.89,0,0,1,.24.61s0,.12,0,.3a.92.92,0,0,0,0,.16c0,.38.15.56.47.56s.38-.15.59-.44a3.34,3.34,0,0,1,2.93-1.46,4.12,4.12,0,0,1,2.53.78,3,3,0,0,1,1,1.29A7.59,7.59,0,0,1,192.82,93.51Z" fill="#446367"/><path d="M201.67,92.25v4a1.8,1.8,0,0,0,.34,1.14,1.08,1.08,0,0,0,.89.45,2.68,2.68,0,0,0,1.2-.42.72.72,0,0,1,.36-.11.67.67,0,0,1,.51.34,1.26,1.26,0,0,1,.24.74,1.86,1.86,0,0,1-.8,1.39,6,6,0,0,1-4,1.42,4.21,4.21,0,0,1-3-1.06,3.63,3.63,0,0,1-1.14-2.79V91.9c0-.18,0-.29-.07-.33a.53.53,0,0,0-.33-.07h-1.21c-.22,0-.37,0-.43-.11a.92.92,0,0,1-.09-.52v-.51a.56.56,0,0,1,.27-.52l5.36-3.37a1.07,1.07,0,0,1,.49-.11h.95a.48.48,0,0,1,.4.14,1,1,0,0,1,.1.53v1.58a.64.64,0,0,0,.11.46.72.72,0,0,0,.47.1h2.17a.73.73,0,0,1,.56.16,1.14,1.14,0,0,1,.13.67v.7a1.37,1.37,0,0,1-.16.78.73.73,0,0,1-.6.21h-2.12a.64.64,0,0,0-.45.12A.69.69,0,0,0,201.67,92.25Z" fill="#446367"/><path d="M216.49,95.61H211c-.24,0-.36.1-.36.31a1.87,1.87,0,0,0,.83,1.44,2.74,2.74,0,0,0,1.77.67,4.3,4.3,0,0,0,1.25-.21,4.25,4.25,0,0,0,1.13-.54,1.24,1.24,0,0,1,.63-.28.8.8,0,0,1,.6.38,1.2,1.2,0,0,1,.29.77,2.15,2.15,0,0,1-1.05,1.63,7,7,0,0,1-4.3,1.39,6.09,6.09,0,0,1-4.13-1.43,5.74,5.74,0,0,1-1.33-1.7,5.94,5.94,0,0,1-.69-2.79,5.64,5.64,0,0,1,1.19-3.53,6.2,6.2,0,0,1,2.63-2,6.51,6.51,0,0,1,2.59-.51,5.83,5.83,0,0,1,3.78,1.27,5.08,5.08,0,0,1,1.27,1.5,4,4,0,0,1,.55,1.92,2.25,2.25,0,0,1-.32,1.25A1,1,0,0,1,216.49,95.61Zm-5.2-2.19h1.18c.5,0,.75-.24.75-.7a1.49,1.49,0,0,0-.36-1,1.24,1.24,0,0,0-1-.4,1.21,1.21,0,0,0-1,.52,1.59,1.59,0,0,0-.35,1,.57.57,0,0,0,.17.49A.89.89,0,0,0,211.29,93.42Z" fill="#446367"/><path d="M221.65,85a2.39,2.39,0,0,1,1.77.75,3.85,3.85,0,0,1,1,2.79,8.89,8.89,0,0,1-.42,2.58,9.61,9.61,0,0,1-1.1,2.45c-.53.81-1,1.22-1.27,1.22s-.75-.52-1.32-1.56a11.15,11.15,0,0,1-1-2.46,9.18,9.18,0,0,1-.37-2.4,4,4,0,0,1,.6-2.24A2.42,2.42,0,0,1,221.65,85Zm.06,11.08a2.31,2.31,0,0,1,1.74.76,2.43,2.43,0,0,1,.73,1.76,2.49,2.49,0,0,1-.75,1.8,2.53,2.53,0,0,1-4.33-1.79,2.36,2.36,0,0,1,.69-1.72A2.56,2.56,0,0,1,221.71,96.1Z" fill="#446367"/></svg>