<svg id="e68f8867-99db-4e44-85cb-6382b98c5357" data-name="Layer 1" xmlns="http://www.w3.org/2000/svg" xmlns:xlink="http://www.w3.org/1999/xlink" viewBox="0 0 256.67 112"><defs><clipPath id="bc39057e-43c1-4ac4-a9eb-305c47882ef0"><polygon points="117.43 17.81 82.5 42.84 124.42 104.51 159.32 80.09 158.74 8.51 125 31.79 117.43 17.81 117.43 17.81" fill="none"/></clipPath></defs><polygon points="117.43 17.81 82.5 42.84 124.42 104.51 159.32 80.09 158.74 8.51 125 31.79 117.43 17.81 117.43 17.81" fill="#008fd5"/><g clip-path="url(#bc39057e-43c1-4ac4-a9eb-305c47882ef0)"><polygon points="125.58 25.38 125.58 120.82 62.72 38.76 110.44 -7.21 125 -7.21 125.58 25.38 125.58 25.38" fill="#fff100"/><polygon points="125.58 32.37 160.49 83.56 160.49 -17.68 125.58 32.37 125.58 32.37" fill="#ec1c24"/></g><polygon points="117.43 17.81 82.5 42.84 124.42 104.51 159.32 80.09 158.74 8.51 125 31.79 117.43 17.81 117.43 17.81" fill="none" stroke="#fdfeff" stroke-miterlimit="3.86" stroke-width="2.76"/><polyline points="124.95 104.14 125.58 30.81 159.32 80.09" fill="none" stroke="#fdfeff" stroke-miterlimit="3.86" stroke-width="2.76"/></svg>