<?xml version="1.0" encoding="UTF-8"?>
<svg id="uuid-0e8d983e-c74b-42f3-9fe2-85383d23fd1e" data-name="Capa 1" xmlns="http://www.w3.org/2000/svg" viewBox="0 0 44 10">
  <path d="M1.57,8.9c-.18,0-.32-.05-.42-.15-.1-.1-.15-.24-.15-.42V1.73c0-.19,.05-.33,.15-.43s.24-.15,.42-.15h2.6c.83,0,1.46,.2,1.91,.61,.45,.41,.67,.98,.67,1.72s-.22,1.33-.67,1.74c-.45,.41-1.09,.61-1.91,.61H2.13v2.48c0,.18-.05,.32-.14,.42-.09,.1-.24,.15-.42,.15Zm.57-3.96h1.88c.54,0,.96-.12,1.23-.36,.28-.24,.42-.6,.42-1.08s-.14-.83-.42-1.07c-.28-.24-.69-.36-1.23-.36h-1.88v2.88Z"/>
  <path d="M10.12,8.92c-.43,0-.79-.08-1.07-.24-.29-.16-.5-.4-.64-.71-.14-.32-.21-.71-.21-1.19V3.99c0-.19,.05-.33,.14-.42,.09-.09,.23-.14,.4-.14s.31,.05,.41,.14c.1,.09,.15,.23,.15,.42v2.8c0,.43,.09,.74,.26,.95,.17,.2,.45,.3,.83,.3,.41,0,.75-.14,1.01-.42,.26-.28,.39-.65,.39-1.1V3.99c0-.19,.05-.33,.14-.42,.09-.09,.23-.14,.41-.14s.31,.05,.4,.14c.09,.09,.14,.23,.14,.42v4.35c0,.37-.18,.55-.53,.55-.17,0-.3-.05-.39-.15-.09-.1-.14-.23-.14-.41v-.92l.14,.24c-.15,.41-.38,.72-.7,.94-.32,.22-.7,.33-1.13,.33Z"/>
  <path d="M15.39,8.9c-.17,0-.31-.05-.4-.15-.09-.1-.14-.23-.14-.41V3.99c0-.18,.05-.32,.14-.41s.22-.14,.39-.14,.31,.05,.4,.14c.09,.09,.14,.23,.14,.41v.85l-.12-.2c.16-.41,.41-.71,.75-.92,.34-.21,.73-.31,1.17-.31s.77,.08,1.05,.23c.28,.16,.49,.39,.63,.71,.14,.32,.21,.71,.21,1.19v2.8c0,.17-.05,.31-.14,.41-.09,.1-.23,.15-.4,.15s-.32-.05-.41-.15c-.09-.1-.14-.23-.14-.41v-2.73c0-.46-.09-.79-.27-1-.18-.21-.46-.32-.83-.32-.44,0-.8,.14-1.06,.41-.26,.28-.4,.65-.4,1.11v2.52c0,.37-.18,.55-.55,.55Z"/>
  <path d="M23.81,8.92c-.44,0-.8-.08-1.1-.23-.3-.15-.52-.38-.66-.67-.15-.3-.22-.66-.22-1.09v-2.57h-.65c-.15,0-.26-.04-.34-.11-.08-.08-.12-.18-.12-.31,0-.14,.04-.24,.12-.32,.08-.07,.19-.11,.34-.11h.65v-1.12c0-.18,.05-.32,.15-.41,.1-.09,.23-.14,.41-.14s.31,.05,.4,.14c.09,.09,.14,.23,.14,.41v1.12h1.27c.15,0,.26,.04,.34,.11,.08,.07,.12,.18,.12,.32,0,.13-.04,.23-.12,.31-.08,.08-.19,.11-.34,.11h-1.27v2.48c0,.38,.08,.67,.24,.87s.43,.29,.8,.29c.13,0,.24-.01,.34-.04,.1-.03,.18-.04,.24-.05,.08,0,.15,.03,.2,.08,.05,.05,.08,.16,.08,.31,0,.11-.02,.21-.06,.3-.04,.09-.11,.16-.21,.18-.09,.03-.2,.06-.35,.08-.15,.03-.28,.04-.4,.04Z"/>
  <path d="M35,8.9c-.18,0-.32-.05-.42-.15-.1-.1-.15-.25-.15-.44v-3.45l.25,.72-2.69-3.73c-.08-.11-.12-.22-.11-.34,0-.12,.06-.22,.15-.3,.09-.08,.21-.13,.36-.13,.12,0,.22,.03,.32,.09,.1,.06,.19,.15,.28,.27l2.15,2.99h-.26l2.15-2.99c.09-.13,.18-.22,.27-.28,.09-.05,.2-.08,.33-.08,.15,0,.27,.04,.35,.11,.08,.08,.13,.17,.13,.29,0,.12-.04,.24-.14,.38l-2.67,3.72,.23-.72v3.45c0,.39-.18,.59-.55,.59Z"/>
  <path d="M40.37,8.92c-.37,0-.7-.07-1-.22-.29-.15-.52-.34-.69-.59-.17-.25-.25-.53-.25-.84,0-.39,.1-.7,.3-.93,.2-.23,.53-.39,.99-.49,.46-.1,1.08-.15,1.87-.15h.51v.67h-.5c-.52,0-.94,.03-1.24,.08-.3,.05-.52,.14-.65,.26-.13,.12-.19,.28-.19,.49,0,.28,.09,.5,.28,.67,.19,.17,.45,.26,.78,.26,.27,0,.5-.06,.71-.19,.2-.13,.36-.3,.48-.52,.12-.22,.18-.47,.18-.75v-1.25c0-.41-.09-.71-.26-.89-.17-.18-.46-.27-.86-.27-.23,0-.47,.03-.72,.09-.25,.06-.51,.16-.78,.29-.12,.06-.23,.08-.32,.05-.09-.02-.16-.07-.21-.15-.05-.08-.08-.16-.08-.25,0-.09,.02-.18,.07-.27,.05-.09,.13-.15,.24-.2,.32-.15,.63-.26,.95-.33,.31-.07,.61-.1,.88-.1,.49,0,.89,.08,1.2,.23,.32,.15,.55,.38,.7,.7,.15,.31,.23,.71,.23,1.21v2.8c0,.17-.04,.31-.13,.41-.09,.1-.21,.15-.38,.15s-.29-.05-.38-.15c-.09-.1-.14-.23-.14-.41v-.71h.1c-.06,.27-.16,.5-.32,.69-.16,.19-.35,.34-.58,.44-.23,.1-.5,.15-.79,.15Z"/>
  <path d="M30.49,4.71c-.22-.41-.52-.73-.91-.95-.39-.22-.85-.34-1.38-.34-.4,0-.76,.06-1.08,.19-.32,.13-.6,.31-.83,.55-.23,.24-.4,.53-.53,.86-.12,.33-.18,.71-.18,1.14,0,.56,.11,1.04,.33,1.46s.52,.73,.91,.96c.39,.22,.85,.34,1.39,.34,.39,0,.75-.06,1.07-.19,.32-.13,.6-.31,.83-.55,.23-.24,.4-.53,.53-.87,.12-.34,.18-.72,.18-1.14,0-.57-.11-1.05-.33-1.46Zm-1.55,1.5c-.53,0-.95-.4-.96-.92,0-.51,.43-.94,.95-.93,.5,0,.9,.41,.9,.92,0,.52-.39,.92-.9,.93Z"/>
</svg>